%FSTAX24Y24*%
%MOIN*%
%IN MASK1.GBR *%
%ADD10C,0.0010*%
%ADD11C,0.0257*%
%ADD12C,0.0300*%
%ADD13C,0.0710*%
%ADD14C,0.0787*%
%ADD15C,0.1060*%
%ADD16C,0.4391*%
%ADD17R,0.0260X0.0310*%
%ADD18R,0.0310X0.0260*%
%ADD19R,0.0336X0.0336*%
%ADD20R,0.0454X0.0277*%
%ADD21R,0.0454X0.0414*%
%ADD22R,0.0473X0.0485*%
%ADD23R,0.0485X0.0473*%
%ADD24R,0.0532X0.0296*%
%ADD25R,0.0580X0.0721*%
%ADD26R,0.0690X0.0572*%
%ADD27R,0.0710X0.0710*%
%ADD28R,0.1060X0.1060*%
%ADD29R,0.1410X0.0760*%
D18*X017073Y018913D03*X016573D03*D17*X017836Y020594D03*Y020094D03*D26*
X015173Y020139D03*Y019352D03*D23*X012173Y016904D03*Y017585D03*
X013173Y016904D03*Y017585D03*D18*X017073Y018363D03*X016573D03*D25*
X016091Y023572D03*X017768D03*D21*X01185Y012697D03*X01248D03*D14*
X026439Y009566D03*Y041063D03*X001242Y009566D03*D16*X00315Y01373D03*
X025197Y030265D03*X00315Y002706D03*Y019241D03*Y030265D03*
X014173Y002706D03*X025197Y019241D03*Y002706D03*X008661D03*X019685D03*
X00315Y024753D03*Y035777D03*Y0468D03*X025197D03*Y035777D03*Y024753D03*
Y01373D03*X014173Y0468D03*D11*Y037402D03*X022047Y009065D03*D27*
X019173Y021945D03*D13*X010173D03*X009173D03*X008173D03*Y020445D03*
Y019445D03*Y018445D03*Y017445D03*Y015945D03*X009173D03*X010173D03*
X018173Y021945D03*X011173Y015945D03*X012173D03*X013173D03*X014173D03*
X015173D03*X016173D03*X017173D03*X018173D03*X019173D03*
X020173Y016445D03*X017173Y021945D03*X020173Y017445D03*Y018445D03*
Y019445D03*Y020445D03*Y021445D03*X016173Y021945D03*X015173D03*
X014173D03*X013173D03*X012173D03*X011173D03*D22*X016313Y014284D03*
X016994D03*D23*X020079Y039423D03*Y040104D03*X0099Y039436D03*Y040117D03*
D22*X00949Y035777D03*X008809D03*X008962Y024275D03*X008281D03*D23*
X008173Y015035D03*Y014354D03*X013173Y014013D03*Y014694D03*
X010423Y017785D03*Y017104D03*D22*X008809Y030277D03*X00949D03*D23*
X01115Y014867D03*Y014186D03*X009173Y014354D03*Y015035D03*D22*
X009456Y028464D03*X008775D03*D23*X020447Y013889D03*Y01457D03*
X022133Y011264D03*Y011945D03*D22*X019465Y019957D03*X018784D03*
X004237Y009118D03*X003556D03*X004237Y010299D03*X003556D03*
X018313Y008858D03*X018994D03*X018313Y009646D03*X018994D03*Y010433D03*
X018313D03*D23*X010423Y019285D03*Y018604D03*D22*X010904Y013597D03*
X011585D03*D23*X009173Y013104D03*Y013785D03*X012173Y014022D03*
Y014704D03*D22*X014764Y013195D03*X014083D03*X018606Y02548D03*
X019287D03*X019606Y035777D03*X020287D03*D28*X014838Y008193D03*D15*
X007594Y010437D03*X013027Y008193D03*X011216D03*X009405D03*X007594D03*
X014838Y010437D03*X013027D03*X011216D03*X009405D03*D20*
X021909Y03024D03*X020531D03*X021909Y030909D03*X020531D03*D19*
X021968Y030574D03*X020472D03*D20*X024504Y008211D03*X025882D03*
X024504Y007542D03*X025882D03*D19*X024445Y007877D03*X025941D03*D29*
X018483Y012675D03*D24*X017139Y019572D03*Y019946D03*Y02032D03*
X016233D03*Y019946D03*Y019572D03*D10*X021893Y023058D03*D12*
X017836Y019784D03*X016236Y018584D03*D10*X009796Y024664D03*
X016086Y023057D03*X006846Y023457D03*X018973Y010945D03*
X022133Y010785D03*D12*X025173Y007865D03*D10*X023156Y021984D03*D12*
X019476Y021344D03*D10*X020516Y029584D03*X021476Y022304D03*D12*
X018756Y023587D03*X012485Y013077D03*X015183Y013195D03*
X010885Y013157D03*D10*X008663Y013115D03*D12*X012693Y017905D03*
X011053Y019505D03*
M02*