%FSTAX24Y24*%
%MOIN*%
%IN MASK2.GBR *%
%ADD10C,0.0240*%
%ADD11C,0.0257*%
%ADD12C,0.0300*%
%ADD13C,0.0710*%
%ADD14C,0.1060*%
%ADD15C,0.5178*%
%ADD16R,0.0710X0.0710*%
%ADD17R,0.1060X0.1060*%
D15*X00315Y01373D03*X025197Y030265D03*X00315Y002706D03*Y019241D03*
Y030265D03*X014173Y002706D03*X025197Y019241D03*Y002706D03*X008661D03*
X019685D03*X00315Y024753D03*Y035777D03*Y0468D03*X025197D03*Y035777D03*
Y024753D03*Y01373D03*X014173Y0468D03*D11*Y037402D03*X022047Y009065D03*
D16*X019173Y021945D03*D13*X010173D03*X009173D03*X008173D03*Y020445D03*
Y019445D03*Y018445D03*Y017445D03*Y015945D03*X009173D03*X010173D03*
X018173Y021945D03*X011173Y015945D03*X012173D03*X013173D03*X014173D03*
X015173D03*X016173D03*X017173D03*X018173D03*X019173D03*
X020173Y016445D03*X017173Y021945D03*X020173Y017445D03*Y018445D03*
Y019445D03*Y020445D03*Y021445D03*X016173Y021945D03*X015173D03*
X014173D03*X013173D03*X012173D03*X011173D03*D17*X014838Y008193D03*D14*
X007594Y010437D03*X013027Y008193D03*X011216D03*X009405D03*X007594D03*
X014838Y010437D03*X013027D03*X011216D03*X009405D03*D12*
X021893Y023058D03*X017836Y019784D03*X016236Y018584D03*
X009796Y024664D03*X016086Y023057D03*X006846Y023457D03*
X018973Y010945D03*X022133Y010785D03*X025173Y007865D03*
X023156Y021984D03*X019476Y021344D03*X020516Y029584D03*
X021476Y022304D03*X018756Y023587D03*X012485Y013077D03*
X015183Y013195D03*X010885Y013157D03*X008663Y013115D03*
X012693Y017905D03*X011053Y019505D03*D10*X01473Y02352D02*G01X01476D01*
X01525D02*X01526D01*X01541Y02396D02*X01543Y02395D01*X01586Y02276D02*
X01587D01*X01637Y02279D02*X01639Y02278D01*X01869Y02421D02*
X01872Y0242D01*X01825Y02383D02*X01827Y02382D01*X01821Y02339D02*
X01825Y02338D01*X0185Y02334D02*X01851Y02333D01*X0185Y02383D02*
X01851D01*X01902Y02384D02*Y02383D01*X01901Y02332D02*X01903D01*
X01928Y02343D02*X01929Y02341D01*X01927Y02381D02*X01929D01*
M02*