%FSTAX24Y24*%
%MOIN*%
%IN SILK2.GBR *%
%ADD10C,0.0054*%
%ADD11C,0.0080*%
%ADD12C,0.0112*%
%ADD13C,0.0173*%
%ADD14C,0.0225*%
D14*X019438Y041228D02*G01X018538D01*X019213Y039878D01*
X018088Y040553D02*X017189D01*X015839Y041003D02*X016064Y041228D01*
X016514D01*X016739Y041003D01*Y040778D01*X016514Y040553D01*X016064D01*
X015839Y040328D01*Y040103D01*X016064Y039878D01*X016514D01*
X016739Y040103D01*X014489Y041228D02*X015389D01*Y040553D01*Y039878D01*
X014489D01*X015389Y040553D02*X014714D01*X013139Y041003D02*
X013364Y041228D01*X013814D01*X014039Y041003D01*Y040103D01*
X013814Y039878D01*X013364D01*X013139Y040103D01*Y04044D01*X013364D01*
X012689Y039878D02*Y041228D01*X012239Y040553D01*X011789Y041228D01*
Y039878D01*X010439Y041228D02*X011339D01*Y040553D01*Y039878D01*
X010439D01*X011339Y040553D02*X010664D01*X009989Y039878D02*Y041228D01*
X00909Y039878D01*Y041228D01*X00819Y039878D02*Y041228D01*X00774D01*
X00819D02*X00864D01*D12*X018711Y019268D02*X018486Y019943D01*
X018345Y019521D01*X018261Y019268D01*X018345Y019521D02*X018626D01*
X018036Y019268D02*Y019943D01*X017698D01*X017586Y01983D01*Y019718D01*
X017698Y019605D01*X017586Y019268D01*X017698Y019605D02*X018036D01*
X016911Y01983D02*X017023Y019943D01*X017361D01*Y019268D01*X017023D01*
X016911Y01938D01*Y01983D01*X016686Y019943D02*Y01938D01*
X016574Y019268D01*X016349D01*X016236Y01938D01*Y019943D01*
X015899Y019268D02*Y019943D01*X015561Y019268D02*Y019943D01*
X015111Y019268D01*Y019943D01*X014436Y01983D02*X014549Y019943D01*
X014774D01*X014886Y01983D01*Y01938D01*X014774Y019268D01*X014549D01*
X014436Y01938D01*Y01983D01*X013536Y019268D02*Y019943D01*
X013311Y019605D01*X013086Y019943D01*Y019268D01*X012749D02*Y019943D01*
X012412Y019268D02*Y019943D01*X011962Y019268D01*Y019943D01*
X011624Y019268D02*Y019943D01*X010162D02*X010612D01*Y019605D01*
X010499Y019718D01*X010274D01*X010162Y019605D01*Y01938D01*
X010274Y019268D01*X010499D01*X010612Y01938D01*X009937Y019943D02*
X009712Y019268D01*X009487Y019943D01*D14*X019888Y038903D02*
X020113Y039128D01*X020788D01*Y037778D01*X020113D01*X019888Y038003D01*
Y038903D01*X019213Y037778D02*Y039128D01*X017639Y038903D02*
X017864Y039128D01*X018314D01*X018539Y038903D01*Y038678D01*
X018314Y038453D01*X017864D01*X017639Y038228D01*Y038003D01*
X017864Y037778D01*X018314D01*X018539Y038003D01*X017189Y037778D02*
Y039128D01*X016514D01*X016289Y038903D01*Y038678D01*X016514Y038453D01*
X017189D01*X015839Y039128D02*Y037778D01*X014939D01*X014489D02*
X014039Y039128D01*X013758Y038284D01*X013589Y037778D01*
X013758Y038284D02*X01432D01*X013139Y039128D02*X012689Y038453D01*
Y037778D01*Y038453D02*X012239Y039128D01*X00819Y038903D02*
X008415Y039128D01*X00909D01*Y037778D01*X008415D01*X00819Y038003D01*
Y038903D01*X00774Y039128D02*X00684D01*X007515Y037778D01*
X021171Y013304D02*Y014654D01*X020496D01*X020271Y014429D01*Y014204D01*
X020496Y013979D01*X021171D01*X018921Y013304D02*Y014204D01*
X019821Y013597D02*X019742Y013878D01*X019619Y014069D01*X019461Y01417D01*
X019349Y014204D01*X019259D01*X019101D01*X018921Y014114D01*
X019821Y013585D02*Y013518D01*X01981Y013473D01*X019776Y013417D01*
X019697Y013372D01*X01954Y013304D01*X019292D01*X019056Y013405D01*
X018921Y013529D01*X018471Y014204D02*Y012798D01*Y013585D02*
X01819Y013304D01*X017909D01*X017628Y013585D01*Y013923D01*
X017909Y014204D01*X01819D01*X018471Y013979D01*X0167Y014176D02*
Y013304D01*Y014541D02*Y01457D01*X015772Y014598D02*X015715Y014541D01*
X015884Y014316D01*X015772Y014598D01*X014309Y013304D02*X01459D01*
X014872Y013417D02*X014759Y013304D01*X01414D01*X014028Y013417D01*
Y013642D01*X01414Y013754D01*X014759D01*X014872Y013867D01*Y014091D01*
X014759Y014204D01*X01414D01*X014028Y014091D01*X011722Y013304D02*
Y014654D01*X011272D01*X011722D02*X012172D01*X010822Y013585D02*
Y013923D01*X010541Y014204D01*X01026D01*X009979Y013923D01*Y013585D01*
X01026Y013304D01*X010541D01*X010822Y013585D01*X009472Y014204D02*
X00936D01*X008966Y013304D01*X008629Y014204D02*Y014091D01*
X009191Y012798D01*X009304D01*X00756Y013304D02*X007841D01*
X008122Y013417D02*X00801Y013304D01*X007391D01*X007279Y013417D01*
Y013642D01*X007391Y013754D01*X00801D01*X008122Y013867D01*Y014091D01*
X00801Y014204D01*X007391D01*X007279Y014091D01*X018588Y043053D02*
X018813Y043278D01*X019263D01*X019488Y043053D01*Y042828D01*
X019263Y042603D01*X018813D01*X018588Y042378D01*Y042153D01*
X018813Y041928D01*X019263D01*X019488Y042153D01*X018138Y041928D02*
Y043278D01*X017239Y041928D01*Y043278D01*X016789Y041928D02*
X016339Y043278D01*X016057Y042434D01*X015889Y041928D01*
X016057Y042434D02*X01662D01*X015439Y041928D02*Y043278D01*X014764D01*
X014539Y043053D01*Y042828D01*X014764Y042603D01*X015439D01*
X011839Y043053D02*X012064Y043278D01*X012514D01*X012739Y043053D01*
Y042153D01*X012514Y041928D01*X012064D01*X011839Y042153D01*Y043053D01*
X011389Y043278D02*X010939Y041928D01*X010489Y043278D01*X00914D02*
X010039D01*Y042603D01*Y041928D01*X00914D01*X010039Y042603D02*
X009365D01*X00869Y041928D02*Y043278D01*X008015D01*X00779Y043053D01*
Y042828D01*X008015Y042603D01*X00779Y041928D01*X008015Y042603D02*
X00869D01*D13*X014276Y012464D02*X021676D01*Y014984D01*X006876D01*
Y012464D01*X014276D01*D10*X010555Y03693D02*X010772D01*Y036767D01*
Y036604D01*Y036767D02*X01061D01*X010447Y03693D02*Y036659D01*
X010392Y036604D01*X010284D01*X01023Y036659D01*Y03693D01*
X010121Y036604D02*Y03693D01*X009904Y036604D01*Y03693D01*
X009578Y036876D02*X009632Y03693D01*X009741D01*X009795Y036876D01*
Y036659D01*X009741Y036604D01*X009632D01*X009578Y036659D01*
X009361Y036604D02*Y03693D01*X009252D01*X009361D02*X00947D01*
X008167Y036604D02*X008058Y03693D01*X00799Y036726D01*X00795Y036604D01*
X00799Y036726D02*X008126D01*X007841Y036604D02*Y03693D01*X007678D01*
X007624Y036876D01*Y036821D01*X007678Y036767D01*X007624Y036604D01*
X007678Y036767D02*X007841D01*X007298Y036876D02*X007352Y03693D01*
X007515D01*Y036604D01*X007352D01*X007298Y036659D01*Y036876D01*
X00719Y03693D02*Y036659D01*X007135Y036604D01*X007027D01*
X006972Y036659D01*Y03693D01*X00681Y036604D02*Y03693D01*
X006647Y036604D02*Y03693D01*X00643Y036604D01*Y03693D01*
X006104Y036876D02*X006158Y03693D01*X006267D01*X006321Y036876D01*
Y036659D01*X006267Y036604D01*X006158D01*X006104Y036659D01*Y036876D01*
X010358Y036187D02*X010413Y036241D01*X010521D01*X010576Y036187D01*
Y036132D01*X010521Y036078D01*X010413D01*X010358Y036024D01*Y03597D01*
X010413Y035915D01*X010521D01*X010576Y03597D01*X010033Y036241D02*
X01025D01*Y036078D01*Y035915D01*X010033D01*X01025Y036078D02*X010087D01*
X009707Y036187D02*X009761Y036241D01*X00987D01*X009924Y036187D01*
Y03597D01*X00987Y035915D01*X009761D01*X009707Y03597D01*Y036051D01*
X009761D01*X009273Y035915D02*X009164Y036241D01*X009096Y036037D01*
X009056Y035915D01*X009096Y036037D02*X009232D01*X007427Y036187D02*
X007481Y036241D01*X007644D01*Y035915D01*X007481D01*X007427Y03597D01*
Y036187D01*X007264Y035915D02*Y036241D01*X006884Y036187D02*
X006938Y036241D01*X007047D01*X007101Y036187D01*Y03597D01*
X007047Y035915D01*X006938D01*X006884Y03597D01*Y036051D01*X006938D01*
X006233Y036187D02*X006287Y036241D01*X006396D01*X00645Y036187D01*
Y03597D01*X006396Y035915D01*X006287D01*X006233Y03597D01*Y036051D01*
X006287Y036105D01*X006396D01*X00645Y036051D01*D11*X010925Y036407D02*
X005906D01*D10*X010358Y035695D02*X010413Y035749D01*X010521D01*
X010576Y035695D01*Y03564D01*X010521Y035586D01*X010413D01*
X010358Y035532D01*Y035478D01*X010413Y035423D01*X010521D01*
X010576Y035478D01*X010033Y035749D02*X01025D01*Y035586D01*Y035423D01*
X010033D01*X01025Y035586D02*X010087D01*X009707Y035695D02*
X009761Y035749D01*X00987D01*X009924Y035695D01*Y035478D01*
X00987Y035423D01*X009761D01*X009707Y035478D01*Y035559D01*X009761D01*
X009273Y035423D02*Y035749D01*X00911D01*X009056Y035695D01*Y03564D01*
X00911Y035586D01*X009056Y035532D01*Y035478D01*X00911Y035423D01*
X009273D01*X00911Y035586D02*X009273D01*X007427Y035695D02*
X007481Y035749D01*X007644D01*Y035423D01*X007481D01*X007427Y035478D01*
Y035695D01*X007264Y035423D02*Y035749D01*X006884Y035695D02*
X006938Y035749D01*X007047D01*X007101Y035695D01*Y035478D01*
X007047Y035423D01*X006938D01*X006884Y035478D01*Y035559D01*X006938D01*
X006233Y035749D02*X00645D01*Y035586D01*X006396Y03564D01*X006287D01*
X006233Y035586D01*Y035478D01*X006287Y035423D01*X006396D01*
X00645Y035478D01*X010358Y035203D02*X010413Y035257D01*X010521D01*
X010576Y035203D01*Y035148D01*X010521Y035094D01*X010413D01*
X010358Y03504D01*Y034985D01*X010413Y034931D01*X010521D01*
X010576Y034985D01*X010033Y035257D02*X01025D01*Y035094D01*Y034931D01*
X010033D01*X01025Y035094D02*X010087D01*X009707Y035203D02*
X009761Y035257D01*X00987D01*X009924Y035203D01*Y034985D01*
X00987Y034931D01*X009761D01*X009707Y034985D01*Y035067D01*X009761D01*
X009056Y035203D02*X00911Y035257D01*X009218D01*X009273Y035203D01*
Y034985D01*X009218Y034931D01*X00911D01*X009056Y034985D01*
X007427Y035203D02*X007481Y035257D01*X007644D01*Y034931D01*X007481D01*
X007427Y034985D01*Y035203D01*X007264Y034931D02*Y035257D01*
X006884Y035203D02*X006938Y035257D01*X007047D01*X007101Y035203D01*
Y034985D01*X007047Y034931D01*X006938D01*X006884Y034985D01*Y035067D01*
X006938D01*X00645Y035203D02*X006396Y035257D01*X006287D01*
X006233Y035203D01*Y035148D01*X006287Y035094D01*X006233Y03504D01*
Y034985D01*X006287Y034931D01*X006396D01*X00645Y034985D01*
X006287Y035094D02*X006341D01*X010358Y03471D02*X010413Y034765D01*
X010521D01*X010576Y03471D01*Y034656D01*X010521Y034602D01*X010413D01*
X010358Y034548D01*Y034493D01*X010413Y034439D01*X010521D01*
X010576Y034493D01*X010033Y034765D02*X01025D01*Y034602D01*Y034439D01*
X010033D01*X01025Y034602D02*X010087D01*X009707Y03471D02*
X009761Y034765D01*X00987D01*X009924Y03471D01*Y034493D01*
X00987Y034439D01*X009761D01*X009707Y034493D01*Y034575D01*X009761D01*
X009056Y03471D02*X00911Y034765D01*X009273D01*Y034439D01*X00911D01*
X009056Y034493D01*Y03471D01*X007427D02*X007481Y034765D01*X007644D01*
Y034439D01*X007481D01*X007427Y034493D01*Y03471D01*X007264Y034439D02*
Y034765D01*X006884Y03471D02*X006938Y034765D01*X007047D01*
X007101Y03471D01*Y034493D01*X007047Y034439D01*X006938D01*
X006884Y034493D01*Y034575D01*X006938D01*X006396Y03471D02*
X006341Y034765D01*Y034439D01*X006287D01*X006341D02*X006396D01*
X005907Y03471D02*X005961Y034765D01*X00607D01*X006124Y03471D01*
Y034493D01*X00607Y034439D01*X005961D01*X005907Y034493D01*Y03471D01*
X006016Y034656D02*Y034548D01*X010358Y034218D02*X010413Y034273D01*
X010521D01*X010576Y034218D01*Y034164D01*X010521Y03411D01*X010413D01*
X010358Y034055D01*Y034001D01*X010413Y033947D01*X010521D01*
X010576Y034001D01*X010033Y034273D02*X01025D01*Y03411D01*Y033947D01*
X010033D01*X01025Y03411D02*X010087D01*X009707Y034218D02*
X009761Y034273D01*X00987D01*X009924Y034218D01*Y034001D01*
X00987Y033947D01*X009761D01*X009707Y034001D01*Y034083D01*X009761D01*
X009056Y034273D02*X009273D01*Y03411D01*Y033947D01*X009056D01*
X009273Y03411D02*X00911D01*X007427Y034218D02*X007481Y034273D01*
X007644D01*Y033947D01*X007481D01*X007427Y034001D01*Y034218D01*
X007264Y033947D02*Y034273D01*X006884Y034218D02*X006938Y034273D01*
X007047D01*X007101Y034218D01*Y034001D01*X007047Y033947D01*X006938D01*
X006884Y034001D01*Y034083D01*X006938D01*X00645Y034001D02*
X006396Y033947D01*X006287D01*X006233Y034001D01*Y034218D01*
X006287Y034273D01*X006396D01*X00645Y034218D01*Y034137D01*
X006396Y034083D01*X006287D01*X006233Y034137D01*X010358Y033726D02*
X010413Y03378D01*X010521D01*X010576Y033726D01*Y033672D01*
X010521Y033618D01*X010413D01*X010358Y033563D01*Y033509D01*
X010413Y033455D01*X010521D01*X010576Y033509D01*X010033Y03378D02*
X01025D01*Y033618D01*Y033455D01*X010033D01*X01025Y033618D02*X010087D01*
X009707Y033726D02*X009761Y03378D01*X00987D01*X009924Y033726D01*
Y033509D01*X00987Y033455D01*X009761D01*X009707Y033509D01*Y03359D01*
X009761D01*X009056Y03378D02*X009273D01*Y033618D01*Y033455D01*
Y033618D02*X00911D01*X007427Y033726D02*X007481Y03378D01*X007644D01*
Y033455D01*X007481D01*X007427Y033509D01*Y033726D01*X007264Y033455D02*
Y03378D01*X006884Y033726D02*X006938Y03378D01*X007047D01*
X007101Y033726D01*Y033509D01*X007047Y033455D01*X006938D01*
X006884Y033509D01*Y03359D01*X006938D01*X00645Y03378D02*X006233D01*
X006396Y033455D01*X010358Y033234D02*X010413Y033288D01*X010521D01*
X010576Y033234D01*Y03318D01*X010521Y033125D01*X010413D01*
X010358Y033071D01*Y033017D01*X010413Y032963D01*X010521D01*
X010576Y033017D01*X010033Y033288D02*X01025D01*Y033125D01*Y032963D01*
X010033D01*X01025Y033125D02*X010087D01*X009707Y033234D02*
X009761Y033288D01*X00987D01*X009924Y033234D01*Y033017D01*
X00987Y032963D01*X009761D01*X009707Y033017D01*Y033098D01*X009761D01*
X009056Y033234D02*X00911Y033288D01*X009218D01*X009273Y033234D01*
Y033017D01*X009218Y032963D01*X00911D01*X009056Y033017D01*Y033098D01*
X00911D01*X007427Y033234D02*X007481Y033288D01*X007644D01*Y032963D01*
X007481D01*X007427Y033017D01*Y033234D01*X007264Y032963D02*Y033288D01*
X006884Y033234D02*X006938Y033288D01*X007047D01*X007101Y033234D01*
Y033017D01*X007047Y032963D01*X006938D01*X006884Y033017D01*Y033098D01*
X006938D01*X006287Y032963D02*Y033288D01*X00645Y033098D01*X006233D01*
X010358Y032742D02*X010413Y032796D01*X010521D01*X010576Y032742D01*
Y032688D01*X010521Y032633D01*X010413D01*X010358Y032579D01*Y032525D01*
X010413Y03247D01*X010521D01*X010576Y032525D01*X010033Y032796D02*
X01025D01*Y032633D01*Y03247D01*X010033D01*X01025Y032633D02*X010087D01*
X009707Y032742D02*X009761Y032796D01*X00987D01*X009924Y032742D01*
Y032525D01*X00987Y03247D01*X009761D01*X009707Y032525D01*Y032606D01*
X009761D01*X009056Y032742D02*X00911Y032796D01*X009273D01*Y03247D01*
X00911D01*X009056Y032525D01*Y032742D01*X008947Y03247D02*Y032796D01*
X008784D01*X00873Y032742D01*Y032688D01*X008784Y032633D01*X008947D01*
X007644Y03247D02*X007536Y032796D01*X007468Y032593D01*X007427Y03247D01*
X007468Y032593D02*X007603D01*X007318Y03247D02*Y032796D01*
X007101Y03247D01*Y032796D01*X006993Y03247D02*X006884Y032796D01*
X006816Y032593D01*X006776Y03247D01*X006816Y032593D02*X006952D01*
X006341Y032742D02*X006287Y032796D01*X006178D01*X006124Y032742D01*
Y032688D01*X006178Y032633D01*X006124Y032579D01*Y032525D01*
X006178Y03247D01*X006287D01*X006341Y032525D01*X006178Y032633D02*
X006233D01*X010358Y03225D02*X010413Y032304D01*X010521D01*
X010576Y03225D01*Y032195D01*X010521Y032141D01*X010413D01*
X010358Y032087D01*Y032033D01*X010413Y031978D01*X010521D01*
X010576Y032033D01*X01025Y032304D02*X010196Y031978D01*X010141Y032304D01*
X010087Y031978D01*X010033Y032304D01*X00987Y031978D02*Y032304D01*
X009598Y031978D02*Y032304D01*X00949D01*X009598D02*X009707D01*
X009164Y03225D02*X009218Y032304D01*X009327D01*X009381Y03225D01*
Y032033D01*X009327Y031978D01*X009218D01*X009164Y032033D01*
X009056Y032304D02*Y032141D01*Y031978D01*Y032141D02*X008838D01*
Y032304D01*Y032141D02*Y031978D01*X007753D02*X007644Y032304D01*
X007576Y0321D01*X007536Y031978D01*X007576Y0321D02*X007712D01*
X007427Y031978D02*Y032304D01*X00721Y031978D01*Y032304D01*
X007101Y031978D02*X006993Y032304D01*X006925Y0321D01*X006884Y031978D01*
X006925Y0321D02*X007061D01*X00645Y03225D02*X006396Y032304D01*
X006287D01*X006233Y03225D01*Y032195D01*X006287Y032141D01*
X00645Y032033D01*Y031978D01*X006233D01*X010358Y030281D02*
X010413Y030336D01*X010521D01*X010576Y030281D01*Y030064D01*
X010521Y03001D01*X010413D01*X010358Y030064D01*X010033Y030281D02*
X010087Y030336D01*X010196D01*X01025Y030281D01*Y030064D01*
X010196Y03001D01*X010087D01*X010033Y030064D01*Y030281D01*
X009924Y030336D02*Y030064D01*X00987Y03001D01*X009761D01*
X009707Y030064D01*Y030336D01*X009598Y03001D02*Y030336D01*
X009381Y03001D01*Y030336D01*X009164Y03001D02*Y030336D01*X009056D01*
X009164D02*X009273D01*X007427Y030281D02*X007481Y030336D01*X007644D01*
Y03001D01*X007481D01*X007427Y030064D01*Y030281D01*X007264Y03001D02*
Y030336D01*X006884Y030281D02*X006938Y030336D01*X007047D01*
X007101Y030281D01*Y030064D01*X007047Y03001D01*X006938D01*
X006884Y030064D01*Y030146D01*X006938D01*X00645Y030281D02*
X006396Y030336D01*X006287D01*X006233Y030281D01*Y030227D01*
X006287Y030173D01*X00645Y030064D01*Y03001D01*X006233D01*
X010358Y031266D02*X010413Y03132D01*X010521D01*X010576Y031266D01*
Y031048D01*X010521Y030994D01*X010413D01*X010358Y031048D01*
X01025Y030994D02*X010141Y03132D01*X010073Y031116D01*X010033Y030994D01*
X010073Y031116D02*X010209D01*X009924Y030994D02*Y03132D01*X009761D01*
X009707Y031266D01*Y031211D01*X009761Y031157D01*X009707Y030994D01*
X009761Y031157D02*X009924D01*X009598Y030994D02*Y03132D01*X009436D01*
X009381Y031266D01*Y031211D01*X009436Y031157D01*X009381Y030994D01*
X009436Y031157D02*X009598D01*X009273Y03132D02*X009164Y031157D01*
Y030994D01*Y031157D02*X009056Y03132D01*X007427Y031266D02*
X007481Y03132D01*X007644D01*Y030994D01*X007481D01*X007427Y031048D01*
Y031266D01*X007264Y030994D02*Y03132D01*X006884Y031266D02*
X006938Y03132D01*X007047D01*X007101Y031266D01*Y031048D01*
X007047Y030994D01*X006938D01*X006884Y031048D01*Y03113D01*X006938D01*
X006396Y031266D02*X006341Y03132D01*Y030994D01*X006287D01*X006341D02*
X006396D01*X00607Y031266D02*X006016Y03132D01*Y030994D01*X005961D01*
X006016D02*X00607D01*X010358Y030773D02*X010413Y030828D01*X010521D01*
X010576Y030773D01*Y030556D01*X010521Y030502D01*X010413D01*
X010358Y030556D01*X01025Y030828D02*Y030502D01*X010033D01*
X009707Y030828D02*X009924D01*Y030665D01*Y030502D01*X009707D01*
X009924Y030665D02*X009761D01*X009598Y030502D02*X00949Y030828D01*
X009422Y030624D01*X009381Y030502D01*X009422Y030624D02*X009558D01*
X009273Y030502D02*Y030828D01*X00911D01*X009056Y030773D01*Y030719D01*
X00911Y030665D01*X009056Y030502D01*X00911Y030665D02*X009273D01*
X007427Y030773D02*X007481Y030828D01*X007644D01*Y030502D01*X007481D01*
X007427Y030556D01*Y030773D01*X007264Y030502D02*Y030828D01*
X006884Y030773D02*X006938Y030828D01*X007047D01*X007101Y030773D01*
Y030556D01*X007047Y030502D01*X006938D01*X006884Y030556D01*Y030638D01*
X006938D01*X006287Y030665D02*X006233Y030719D01*Y030773D01*
X006287Y030828D01*X006396D01*X00645Y030773D01*Y030719D01*
X006396Y030665D01*X006287D01*X006233Y030611D01*Y030556D01*
X006287Y030502D01*X006396D01*X00645Y030556D01*Y030611D01*
X006396Y030665D01*X010467Y031486D02*Y031812D01*X010358D01*X010467D02*
X010576D01*X010033D02*X01025D01*Y031649D01*Y031486D01*X010033D01*
X01025Y031649D02*X010087D01*X009707Y031758D02*X009761Y031812D01*
X00987D01*X009924Y031758D01*Y031703D01*X00987Y031649D01*X009761D01*
X009707Y031595D01*Y031541D01*X009761Y031486D01*X00987D01*
X009924Y031541D01*X00949Y031486D02*Y031812D01*X009381D01*X00949D02*
X009598D01*X007427Y031758D02*X007481Y031812D01*X007644D01*Y031486D01*
X007481D01*X007427Y031541D01*Y031758D01*X007264Y031486D02*Y031812D01*
X006884Y031758D02*X006938Y031812D01*X007047D01*X007101Y031758D01*
Y031541D01*X007047Y031486D01*X006938D01*X006884Y031541D01*Y031622D01*
X006938D01*X006396Y031758D02*X006341Y031812D01*Y031486D01*X006287D01*
X006341D02*X006396D01*X006124Y031758D02*X00607Y031812D01*X005961D01*
X005907Y031758D01*Y031703D01*X005961Y031649D01*X006124Y031541D01*
Y031486D01*X005907D01*X010521Y02686D02*Y027186D01*X010358Y02686D02*
Y027186D01*X010141Y02686D01*Y027186D01*X010033Y02686D02*Y027186D01*
X00987D01*X009816Y027132D01*Y027077D01*X00987Y027023D01*X010033D01*
X009707Y027186D02*Y026915D01*X009653Y02686D01*X009544D01*
X00949Y026915D01*Y027186D01*X009273Y02686D02*Y027186D01*X009164D01*
X009273D02*X009381D01*X00873D02*X008621Y02686D01*X008513Y027186D01*
X008187Y027132D02*X008241Y027186D01*X00835D01*X008404Y027132D01*
Y026915D01*X00835Y02686D01*X008241D01*X008187Y026915D01*Y027132D01*
X008078Y027186D02*Y02686D01*X007861D01*X007644D02*Y027186D01*
X007536D01*X007644D02*X007753D01*X007427Y02686D02*X007318Y027186D01*
X007251Y026982D01*X00721Y02686D01*X007251Y026982D02*X007386D01*
X006884Y027132D02*X006938Y027186D01*X007047D01*X007101Y027132D01*
Y026915D01*X007047Y02686D01*X006938D01*X006884Y026915D01*Y026996D01*
X006938D01*X006558Y027186D02*X006776D01*Y027023D01*Y02686D01*
X006558D01*X006776Y027023D02*X006613D01*X010358Y026694D02*X010576D01*
Y026531D01*Y026368D01*Y026531D02*X010413D01*X01025Y026368D02*
Y026694D01*X010087D01*X010033Y02664D01*Y026585D01*X010087Y026531D01*
X010033Y026368D01*X010087Y026531D02*X01025D01*X009707Y02664D02*
X009761Y026694D01*X00987D01*X009924Y02664D01*Y026422D01*
X00987Y026368D01*X009761D01*X009707Y026422D01*Y02664D01*
X009598Y026368D02*Y026694D01*X00949Y026531D01*X009381Y026694D01*
Y026368D01*X008947Y02664D02*X008893Y026694D01*X008784D01*
X00873Y02664D01*Y026585D01*X008784Y026531D01*X008947Y026422D01*
Y026368D01*X00873D01*X00854D02*X008513D01*Y026395D01*X00854D01*
Y026368D01*X008078Y026694D02*X008296D01*Y026531D01*X008241Y026585D01*
X008133D01*X008078Y026531D01*Y026422D01*X008133Y026368D01*X008241D01*
X008296Y026422D01*X007536Y026368D02*Y026694D01*X007427D01*X007536D02*
X007644D01*X007101Y02664D02*X007156Y026694D01*X007264D01*
X007318Y02664D01*Y026422D01*X007264Y026368D01*X007156D01*
X007101Y026422D01*Y02664D01*X00645Y026694D02*X006667D01*Y026531D01*
X006613Y026585D01*X006504D01*X00645Y026531D01*Y026422D01*
X006504Y026368D01*X006613D01*X006667Y026422D01*X010576Y026202D02*
X010467Y025876D01*X010358Y026202D01*X010033Y026147D02*
X010087Y026202D01*X010196D01*X01025Y026147D01*Y02593D01*
X010196Y025876D01*X010087D01*X010033Y02593D01*Y026147D01*
X009924Y026202D02*Y025876D01*X009707D01*X00949D02*Y026202D01*
X009381D01*X00949D02*X009598D01*X009056Y026147D02*X00911Y026202D01*
X009218D01*X009273Y026147D01*Y026093D01*X009218Y026039D01*X00911D01*
X009056Y025985D01*Y02593D01*X00911Y025876D01*X009218D01*
X009273Y02593D01*X010576Y029321D02*X010467Y029647D01*X010399Y029443D01*
X010358Y029321D01*X010399Y029443D02*X010535D01*X01025Y029647D02*
Y029321D01*X010033D01*X009924Y029647D02*Y029321D01*X009707D01*
X009056Y029592D02*X00911Y029647D01*X009218D01*X009273Y029592D01*
Y029538D01*X009218Y029484D01*X00911D01*X009056Y029429D01*Y029375D01*
X00911Y029321D01*X009218D01*X009273Y029375D01*X00873Y029647D02*
X008947D01*Y029484D01*Y029321D01*X00873D01*X008947Y029484D02*
X008784D01*X008404Y029592D02*X008458Y029647D01*X008567D01*
X008621Y029592D01*Y029375D01*X008567Y029321D01*X008458D01*
X008404Y029375D01*Y029457D01*X008458D01*X008296Y029321D02*Y029647D01*
X008187Y029484D01*X008078Y029647D01*Y029321D01*X007753Y029647D02*
X00797D01*Y029484D01*Y029321D01*X007753D01*X00797Y029484D02*X007807D01*
X007644Y029321D02*Y029647D01*X007427Y029321D01*Y029647D01*
X00721Y029321D02*Y029647D01*X007101D01*X00721D02*X007318D01*
X006776Y029592D02*X00683Y029647D01*X006938D01*X006993Y029592D01*
Y029538D01*X006938Y029484D01*X00683D01*X006776Y029429D01*Y029375D01*
X00683Y029321D01*X006938D01*X006993Y029375D01*X010576Y028829D02*
X010467Y029154D01*X010399Y028951D01*X010358Y028829D01*
X010399Y028951D02*X010535D01*X01025Y028829D02*Y029154D01*X010087D01*
X010033Y0291D01*Y029046D01*X010087Y028992D01*X010033Y028829D01*
X010087Y028992D02*X01025D01*X009707Y029154D02*X009924D01*Y028992D01*
Y028829D01*X009707D01*X009924Y028992D02*X009761D01*X009056Y0291D02*
X00911Y029154D01*X009218D01*X009273Y0291D01*Y028883D01*
X009218Y028829D01*X00911D01*X009056Y028883D01*Y0291D01*
X008947Y028829D02*Y029154D01*X008784D01*X00873Y0291D01*Y029046D01*
X008784Y028992D01*X008947D01*X008404Y029154D02*X008621D01*Y028992D01*
Y028829D01*X008404D01*X008621Y028992D02*X008458D01*X008296Y028829D02*
Y029154D01*X008078Y028829D01*Y029154D01*X007427Y0291D02*
X007481Y029154D01*X007644D01*Y028829D01*X007481D01*X007427Y028883D01*
Y0291D01*X007318Y028829D02*Y029154D01*X007156D01*X007101Y0291D01*
Y029046D01*X007156Y028992D01*X007101Y028829D01*X007156Y028992D02*
X007318D01*X006993Y028829D02*X006884Y029154D01*X006816Y028951D01*
X006776Y028829D01*X006816Y028951D02*X006952D01*X006613Y028829D02*
Y029154D01*X00645Y028829D02*Y029154D01*X006233Y028829D01*Y029154D01*
M02*