%FSTAX24Y24*%
%MOIN*%
%IN SPASTE1.GBR *%
%ADD10C,0.0400*%
%ADD11R,0.0200X0.0250*%
%ADD12R,0.0250X0.0200*%
%ADD13R,0.0276X0.0276*%
%ADD14R,0.0394X0.0217*%
%ADD15R,0.0394X0.0354*%
%ADD16R,0.0413X0.0425*%
%ADD17R,0.0425X0.0413*%
%ADD18R,0.0472X0.0236*%
%ADD19R,0.0520X0.0661*%
%ADD20R,0.0630X0.0512*%
%ADD21R,0.1350X0.0700*%
D20*X015173Y020139D03*D18*X016233Y02032D03*D20*X015173Y019352D03*D18*
X016233Y019572D03*D17*X012173Y016904D03*Y014704D03*Y017585D03*
X013173D03*Y016904D03*Y014694D03*D12*X016573Y018363D03*Y018913D03*D15*
X01248Y012697D03*D10*X026439Y009566D03*Y041063D03*X001242Y009566D03*
D17*X008173Y014354D03*X012173Y014022D03*D16*X011585Y013597D03*
X014083Y013195D03*D17*X013173Y014013D03*D16*X008281Y024275D03*D17*
X0099Y040117D03*X020079Y040104D03*D16*X019287Y02548D03*
X016994Y014284D03*X00949Y035777D03*Y030277D03*D17*X010423Y017104D03*
D16*X018313Y010433D03*X018606Y02548D03*X019606Y035777D03*D17*
X020079Y039423D03*X0099Y039436D03*D16*X016313Y014284D03*
X008809Y035777D03*X008962Y024275D03*D17*X008173Y015035D03*
X010423Y017785D03*Y018604D03*X01115Y014867D03*Y014186D03*D15*
X01185Y012697D03*D17*X009173Y014354D03*Y013785D03*Y015035D03*D16*
X009456Y028464D03*D17*X020447Y01457D03*X022133Y011264D03*D16*
X019465Y019957D03*X004237Y009118D03*X003556D03*Y010299D03*
X018994Y009646D03*Y008858D03*D12*X017073Y018363D03*Y018913D03*D18*
X017139Y019572D03*D16*X018784Y019957D03*X004237Y010299D03*
X018313Y008858D03*Y009646D03*X018994Y010433D03*D17*X010423Y019285D03*
D16*X010904Y013597D03*D17*X009173Y013104D03*D16*X014764Y013195D03*
X020287Y035777D03*D14*X020531Y030909D03*X021909D03*D16*
X008809Y030277D03*X008775Y028464D03*D14*X024504Y007542D03*X025882D03*
D17*X022133Y011945D03*X020447Y013889D03*D13*X025941Y007877D03*
X024445D03*D18*X017139Y019946D03*D11*X017836Y020094D03*D13*
X020472Y030574D03*X021968D03*D14*X020531Y03024D03*X021909D03*
X024504Y008211D03*X025882D03*D21*X018483Y012675D03*D19*
X016091Y023572D03*X017768D03*D11*X017836Y020594D03*D18*
X017139Y02032D03*X016233Y019946D03*
M02*