%FSTAX24Y24*%
%MOIN*%
%IN SILK1.GBR *%
%ADD10C,0.0046*%
%ADD11C,0.0049*%
%ADD12C,0.0050*%
%ADD13C,0.0051*%
%ADD14C,0.0057*%
%ADD15C,0.0060*%
%ADD16C,0.0063*%
%ADD17C,0.0070*%
%ADD18C,0.0080*%
%ADD19C,0.0090*%
%ADD20C,0.0090*%
%ADD21C,0.0100*%
%ADD22C,0.0112*%
%ADD23C,0.0114*%
%ADD24C,0.0118*%
%ADD25C,0.0157*%
%ADD26C,0.0214*%
%ADD27C,0.0314*%
%ADD28C,0.0440*%
D22*X014901Y022798D02*G01X014788Y02291D01*Y023135D01*X014901Y023248D01*
X015013D01*X015126Y023135D01*X015351Y022798D01*X015463D01*Y023248D01*
X013941Y022775D02*X013828Y022888D01*Y023113D01*X013941Y023225D01*
X014053D01*X014166Y023113D01*X014278Y023225D01*X014391D01*
X014503Y023113D01*Y022888D01*X014391Y022775D01*X014166Y023113D02*
Y023D01*X013464Y023105D02*X01279D01*X013183Y022768D01*Y023218D01*
X011811Y023158D02*Y022708D01*X012148D01*X012036Y02282D01*Y023045D01*
X012148Y023158D01*X012373D01*X012486Y023045D01*Y02282D01*
X012373Y022708D01*X010993Y023188D02*X010881Y023075D01*Y02285D01*
X010993Y022738D01*X011443D01*X011556Y02285D01*Y023075D01*
X011443Y023188D01*X011274D01*X011162Y023075D01*Y02285D01*
X011274Y022738D01*X009868Y022685D02*Y023135D01*X010543Y022798D01*
X009157Y023017D02*X009045Y023129D01*X008932D01*X00882Y023017D01*
Y022792D01*X008932Y022679D01*X009045D01*X009157Y022792D01*Y023017D01*
X00927Y023129D01*X009382D01*X009495Y023017D01*Y022792D01*
X009382Y022679D01*X00927D01*X009157Y022792D01*X008361Y0227D02*
X008473Y022813D01*Y023038D01*X008361Y02315D01*X007911D01*
X007798Y023038D01*Y022813D01*X007911Y0227D01*X00808D01*
X008192Y022813D01*Y023038D01*X00808Y02315D01*X014473Y01412D02*
X013798Y014345D01*X01422Y014486D01*X014473Y01457D01*X01422Y014486D02*
Y014205D01*X013911Y014795D02*X013798Y014908D01*Y015133D01*
X013911Y015245D01*X014023D01*X014136Y015133D01*X014361Y014795D01*
X014473D01*Y015245D01*X015493Y01412D02*X014818Y014345D01*
X01524Y014486D01*X015493Y01457D01*X01524Y014486D02*Y014205D01*
X014931Y014795D02*X014818Y014908D01*Y015133D01*X014931Y015245D01*
X015043D01*X015156Y015133D01*X015268Y015245D01*X015381D01*
X015493Y015133D01*Y014908D01*X015381Y014795D01*X015156Y015133D02*
Y01502D01*D18*X016955Y018716D02*X01668D01*X016955Y01911D02*X01668D01*
X018033Y020476D02*Y0202D01*X017639Y020476D02*Y0202D01*
X015623Y019903D02*Y019588D01*X014723Y019903D02*Y019588D01*
X012473Y017075D02*Y017415D01*X011873Y017075D02*Y017415D01*
X013473Y017075D02*Y017415D01*X012873Y017075D02*Y017415D01*
X016955Y018166D02*X01668D01*X016955Y01856D02*X01668D01*D21*
X01779Y023018D02*X016018D01*Y023168D01*Y02397D02*Y02412D01*X01779D01*
Y02397D01*Y023168D02*Y023068D01*X017418Y02412D02*Y02302D01*
X012711Y012851D02*X012718Y012827D01*X012735Y01281D01*X012759Y012803D01*
X012761D01*X012785Y01281D01*X012803Y012827D01*X012809Y012851D01*
X012803Y012875D01*X012785Y012893D01*X012761Y012899D01*X012759D01*
X012735Y012893D01*X012718Y012875D01*X012711Y012851D01*D19*
X018043Y014248D02*X017953Y014158D01*Y013978D01*X018043Y013888D01*
X018403D01*X018493Y013978D01*Y014158D01*X018403Y014248D01*X018268D01*
Y014158D01*X018493Y014428D02*X017953D01*X018493Y014788D01*X017953D01*
X018043Y015328D02*X017953Y015238D01*Y014968D01*X018493D01*Y015238D01*
X018403Y015328D01*X018043D01*D17*X012673Y037392D02*X012688Y037178D01*
X012734Y036969D01*X012809Y036769D01*X012911Y036581D01*X01304Y036409D01*
X013191Y036258D01*X013362Y03613D01*X01355Y036027D01*X013751Y035952D01*
X01396Y035907D01*X014173Y035892D01*X014387Y035907D01*X014596Y035952D01*
X014796Y036027D01*X014984Y03613D01*X015156Y036258D01*X015307Y036409D01*
X015435Y036581D01*X015538Y036769D01*X015612Y036969D01*
X015658Y037178D01*X015673Y037392D01*X015658Y037605D01*
X015612Y037814D01*X015538Y038015D01*X015435Y038203D01*
X015307Y038374D01*X015156Y038525D01*X014984Y038654D01*
X014796Y038756D01*X014596Y038831D01*X014387Y038876D01*
X014173Y038892D01*X01396Y038876D01*X013751Y038831D01*X01355Y038756D01*
X013362Y038654D01*X013191Y038525D01*X01304Y038374D01*X012911Y038203D01*
X012809Y038015D01*X012734Y037814D01*X012688Y037605D01*
X012673Y037392D01*X020547Y009055D02*X020563Y008842D01*
X020608Y008633D01*X020683Y008432D01*X020785Y008244D01*
X020914Y008073D01*X021065Y007921D01*X021236Y007793D01*
X021424Y007691D01*X021625Y007616D01*X021834Y00757D01*X022047Y007555D01*
X022261Y00757D01*X02247Y007616D01*X02267Y007691D01*X022858Y007793D01*
X02303Y007921D01*X023181Y008073D01*X023309Y008244D01*X023412Y008432D01*
X023486Y008633D01*X023532Y008842D01*X023547Y009055D01*
X023532Y009269D01*X023486Y009478D01*X023412Y009678D01*
X023309Y009866D01*X023181Y010037D01*X02303Y010189D01*X022858Y010317D01*
X02267Y01042D01*X02247Y010494D01*X022261Y01054D01*X022047Y010555D01*
X021834Y01054D01*X021625Y010494D01*X021424Y01042D01*X021236Y010317D01*
X021065Y010189D01*X020914Y010037D01*X020785Y009866D01*
X020683Y009678D01*X020608Y009478D01*X020563Y009269D01*
X020547Y009055D01*D21*X014173Y022445D02*X007673D01*Y015445D01*
X020673D01*Y022445D01*X014173D01*D24*X011316Y040224D02*Y040933D01*
X01167D01*X011788Y040815D01*Y040697D01*X01167Y040578D01*X011316D01*
X012497Y040224D02*Y040697D01*X012024Y040378D02*X012066Y040525D01*
X012131Y040626D01*X012213Y040679D01*X012273Y040697D01*X01232D01*
X012402D01*X012497Y040649D01*X012024Y040372D02*Y040336D01*
X01203Y040313D01*X012048Y040283D01*X012089Y04026D01*X012172Y040224D01*
X012302D01*X012426Y040277D01*X012497Y040342D01*X012733Y040697D02*
Y039958D01*Y040372D02*X012881Y040224D01*X013028D01*X013176Y040372D01*
Y040549D01*X013028Y040697D01*X012881D01*X012733Y040578D01*
X013663Y040682D02*Y040224D01*Y040874D02*Y040888D01*X01415Y040903D02*
X01418Y040874D01*X014091Y040756D01*X01415Y040903D01*X014918Y040224D02*
X014771D01*X014623Y040283D02*X014682Y040224D01*X015007D01*
X015066Y040283D01*Y040401D01*X015007Y04046D01*X014682D01*
X014623Y040519D01*Y040637D01*X014682Y040697D01*X015007D01*
X015066Y040637D01*X016276Y040224D02*Y040933D01*X016513D01*X016276D02*
X01604D01*X016749Y040372D02*Y040549D01*X016897Y040697D01*X017044D01*
X017192Y040549D01*Y040372D01*X017044Y040224D01*X016897D01*
X016749Y040372D01*X017458Y040697D02*X017517D01*X017723Y040224D01*
X0179Y040697D02*Y040637D01*X017605Y039958D01*X017546D01*
X018461Y040224D02*X018314D01*X018166Y040283D02*X018225Y040224D01*
X01855D01*X018609Y040283D01*Y040401D01*X01855Y04046D01*X018225D01*
X018166Y040519D01*Y040637D01*X018225Y040697D01*X01855D01*
X018609Y040637D01*D18*X016453Y013994D02*X016853D01*X016453Y014574D02*
X016853D01*X020369Y039564D02*Y039964D01*X019789Y039564D02*Y039964D01*
X01019Y039577D02*Y039977D01*X00961Y039577D02*Y039977D01*
X00935Y036067D02*X00895D01*X00935Y035487D02*X00895D01*
X008821Y024565D02*X008421D01*X008821Y023985D02*X008421D01*
X007883Y014895D02*Y014495D01*X008463Y014895D02*Y014495D01*
X013463Y014154D02*Y014554D01*X012883Y014154D02*Y014554D01*
X010133Y017645D02*Y017245D01*X010713Y017645D02*Y017245D01*
X00895Y029987D02*X00935D01*X00895Y030567D02*X00935D01*X01086Y014727D02*
Y014327D01*X01144Y014727D02*Y014327D01*X009463Y014495D02*Y014895D01*
X008883Y014495D02*Y014895D01*X009316Y028754D02*X008916D01*
X009316Y028174D02*X008916D01*X020737Y01403D02*Y01443D01*
X020157Y01403D02*Y01443D01*X022423Y011404D02*Y011804D01*
X021843Y011404D02*Y011804D01*X019325Y020247D02*X018925D01*
X019325Y019667D02*X018925D01*X004097Y009408D02*X003697D01*
X004097Y008828D02*X003697D01*X004097Y010589D02*X003697D01*
X004097Y010009D02*X003697D01*X018454Y008568D02*X018854D01*
X018454Y009148D02*X018854D01*X018454Y009356D02*X018854D01*
X018454Y009936D02*X018854D01*Y010723D02*X018454D01*X018854Y010143D02*
X018454D01*X010133Y019145D02*Y018745D01*X010713Y019145D02*Y018745D01*
X011045Y013307D02*X011445D01*X011045Y013887D02*X011445D01*
X009463Y013245D02*Y013645D01*X008883Y013245D02*Y013645D01*
X012463Y014163D02*Y014563D01*X011883Y014163D02*Y014563D01*
X014623Y013485D02*X014223D01*X014623Y012905D02*X014223D01*
X018747Y02519D02*X019147D01*X018747Y02577D02*X019147D01*
X019747Y035487D02*X020147D01*X019747Y036067D02*X020147D01*D17*
X011216Y007189D02*X016826D01*Y011441D01*X005605D01*Y007189D01*
X011216D01*D12*X02157Y031024D02*X02087D01*X02147Y030124D02*Y030024D01*
X02157D01*Y030074D01*X02152D01*Y030024D01*Y030074D02*Y030124D01*
X02157Y030074D02*Y030124D01*X02087D01*X024843Y007427D02*X025543D01*
X024943Y008327D02*Y008427D01*X024843D01*Y008377D01*X024893D01*
Y008427D01*Y008377D02*Y008327D01*X024843Y008377D02*Y008327D01*
X025543D01*D15*X016528Y019346D02*X016843D01*X016528Y020547D02*
X016843D01*D20*X017536Y019296D02*X017561Y019303D01*X017579Y019321D01*
X017586Y019346D01*X017579Y019371D01*X017561Y01939D01*X017536Y019396D01*
X017511Y01939D01*X017493Y019371D01*X017486Y019346D01*X017493Y019321D01*
X017511Y019303D01*X017536Y019296D01*D22*X008143Y012352D02*
X008256Y011677D01*X008368Y012352D01*X008481Y011677D01*
X008593Y012352D01*X010112D02*X010562Y011677D01*X010112D02*
X010562Y012352D01*X011883D02*X012108Y012014D01*Y011677D01*Y012014D02*
X012333Y012352D01*X013852D02*X014302D01*X013852Y011677D01*X014302D01*
D21*X015016Y039744D02*X018916D01*Y041184D01*X011036D01*Y039744D01*
X015016D01*D28*X004724Y038573D02*X008661D01*Y042313D01*
X007087Y040738D01*X002362D01*Y040344D01*X004724D01*X007087D02*
Y040738D01*X004724Y040344D02*X007087D01*X008661Y042313D02*X000787D01*
Y038573D01*X004724D01*Y038967D02*X008268D01*Y041919D01*X001181D01*
Y038967D01*X004724D01*Y03936D02*X007874D01*Y041526D01*X001575D01*
Y03936D01*X004724D01*Y039754D02*X00748D01*Y041132D01*X001969D01*
Y039754D01*X004724D01*X00748Y040148D02*X001969Y039951D01*
X008465Y03877D02*X007087Y039951D01*X000787Y03877D02*X002559Y040148D01*
Y040935D02*X000984Y041919D01*D10*X016104Y019133D02*X016059Y019178D01*
X015967D01*X015922Y019133D01*Y01895D01*X015967Y018904D01*X016059D01*
X016104Y01895D01*X016242Y019133D02*X016287Y019178D01*Y018904D01*
X016333D01*X016287D02*X016242D01*X017469Y018982D02*X017515Y019027D01*
X017606D01*X017652Y018982D01*Y018936D01*X017606Y01889D01*
X017469Y018799D01*Y018753D01*X017652D01*X017812D02*X017835D01*
Y018776D01*X017812D01*Y018753D01*X018018Y018982D02*X018063Y019027D01*
X018155D01*X0182Y018982D01*Y018936D01*X018155Y01889D01*
X018018Y018799D01*Y018753D01*X0182D01*X018463Y018936D02*Y018753D01*
Y018799D02*X018418Y018753D01*X018338D01*X018292Y018799D01*Y018936D01*
X018749Y019027D02*X018566D01*Y01889D01*Y018753D01*Y01889D02*X018703D01*
X017705Y021033D02*X017659Y020988D01*Y020896D01*X017705Y020851D01*
X017888D01*X017933Y020896D01*Y020988D01*X017888Y021033D01*
X017705Y021125D02*X017659Y021171D01*Y021262D01*X017705Y021308D01*
X01775D01*X017796Y021262D01*X017888Y021125D01*X017933D01*Y021308D01*
X018225Y019691D02*X018179Y019736D01*Y019828D01*X018225Y019873D01*
X01827D01*X018316Y019828D01*X018408Y019691D01*X018453D01*Y019873D01*
Y020033D02*Y020056D01*X01843D01*Y020033D01*X018453D01*
X018225Y020239D02*X018179Y020285D01*Y020376D01*X018225Y020422D01*
X01827D01*X018316Y020376D01*X018408Y020239D01*X018453D01*Y020422D01*
X01827Y020685D02*X018453D01*X018408D02*X018453Y020639D01*Y020559D01*
X018408Y020513D01*X01827D01*X018179Y020971D02*Y020788D01*X018316D01*
X018453D01*X018316D02*Y020925D01*X015055Y018548D02*X015009Y018502D01*
Y018411D01*X015055Y018365D01*X015238D01*X015283Y018411D01*Y018502D01*
X015238Y018548D01*X015055Y018639D02*X015009Y018685D01*Y018776D01*
X015055Y018822D01*X0151D01*X015146Y018776D01*X015192Y018822D01*
X015238D01*X015283Y018776D01*Y018685D01*X015238Y018639D01*
X015146Y018776D02*Y018731D01*X014295Y01908D02*X014249Y019035D01*
Y018943D01*X014295Y018897D01*X014478D01*X014523Y018943D01*Y019035D01*
X014478Y01908D01*X014295D01*X01434Y018989D02*X014432D01*
X014523Y01924D02*Y019263D01*X0145D01*Y01924D01*X014523D01*Y019583D02*
X014249D01*X014409Y019446D01*Y019629D01*X014249Y01972D02*Y019903D01*
X014523Y019766D01*X014249Y020452D02*Y020269D01*X014386D01*X014523D01*
X014386D02*Y020406D01*X012055Y018133D02*X012009Y018087D01*Y017996D01*
X012055Y01795D01*X012238D01*X012283Y017996D01*Y018087D01*
X012238Y018133D01*X012283Y018361D02*X012009D01*X012169Y018224D01*
Y018407D01*X011405Y017083D02*X011359Y017037D01*Y016946D01*
X011405Y0169D01*X011588D01*X011633Y016946D01*Y017037D01*
X011588Y017083D01*X011405D01*X01145Y016991D02*X011542D01*
X011633Y017243D02*Y017266D01*X01161D01*Y017243D01*X011633D01*
X011405Y017494D02*X011359Y01754D01*X011633D01*Y017586D01*Y01754D02*
Y017494D01*X01145Y017894D02*X011633D01*X011588D02*X011633Y017849D01*
Y017769D01*X011588Y017723D01*X01145D01*X011359Y01818D02*Y017997D01*
X011496D01*X011633D01*X011496D02*Y018134D01*X013055Y018083D02*
X013009Y018037D01*Y017946D01*X013055Y0179D01*X013238D01*
X013283Y017946D01*Y018037D01*X013238Y018083D01*X013009Y018357D02*
Y018174D01*X013146D01*X0131Y01822D01*Y018311D01*X013146Y018357D01*
X013238D01*X013283Y018311D01*Y01822D01*X013238Y018174D01*
X013801Y016939D02*X013755Y016893D01*Y016802D01*X013801Y016756D01*
X013984D01*X014029Y016802D01*Y016893D01*X013984Y016939D01*X013801D01*
X013846Y016848D02*X013938D01*X014029Y017099D02*Y017122D01*X014006D01*
Y017099D01*X014029D01*X013801Y01735D02*X013755Y017396D01*X014029D01*
Y017442D01*Y017396D02*Y01735D01*X013846Y01775D02*X014029D01*X013984D02*
X014029Y017705D01*Y017625D01*X013984Y017579D01*X013846D01*
X013755Y018036D02*Y017853D01*X013892D01*X014029D01*X013892D02*
Y01799D01*X016144Y018213D02*X016099Y018258D01*X016007D01*
X015962Y018213D01*Y01803D01*X016007Y017984D01*X016099D01*
X016144Y01803D01*X016419Y018213D02*X016373Y018258D01*X016282D01*
X016236Y018213D01*Y01803D01*X016282Y017984D01*X016373D01*
X016419Y01803D01*Y018098D01*X016373Y018144D01*X016282D01*
X016236Y018098D01*X017469Y018442D02*X017515Y018487D01*X017606D01*
X017652Y018442D01*Y018396D01*X017606Y01835D01*X017469Y018259D01*
Y018213D01*X017652D01*X017812D02*X017835D01*Y018236D01*X017812D01*
Y018213D01*X018018Y018442D02*X018063Y018487D01*X018155D01*
X0182Y018442D01*Y018396D01*X018155Y01835D01*X018018Y018259D01*
Y018213D01*X0182D01*X018463Y018396D02*Y018213D01*Y018259D02*
X018418Y018213D01*X018338D01*X018292Y018259D01*Y018396D01*
X018749Y018487D02*X018566D01*Y01835D01*Y018213D01*Y01835D02*X018703D01*
X018285Y023116D02*X018239Y023161D01*X018102D01*Y022887D01*X018239D01*
X018285Y022933D01*Y023116D01*X018422D02*X018468Y023161D01*Y022887D01*
X018513D01*X018468D02*X018422D01*X013173Y012955D02*X013127Y013001D01*
X01299D01*Y012727D01*X013127D01*X013173Y012772D01*Y012955D01*
X013265D02*X01331Y013001D01*X013402D01*X013447Y012955D01*Y01291D01*
X013402Y012864D01*X013447Y012818D01*Y012772D01*X013402Y012727D01*
X01331D01*X013265Y012772D01*X013402Y012864D02*X013356D01*D13*
X010708Y01292D02*X010657Y01297D01*X010505D01*Y012667D01*X010657D01*
X010708Y012717D01*Y01292D01*X01086Y012667D02*Y01297D01*
X011011Y012667D02*X011113Y01297D01*X011176Y012781D01*X011214Y012667D01*
X011176Y012781D02*X011049D01*X011518Y01292D02*X011467Y01297D01*
X011366D01*X011315Y01292D01*Y012717D01*X011366Y012667D01*X011467D01*
X011518Y012717D01*Y012793D01*X011467D01*D10*X026944Y010618D02*
X026762D01*Y010481D01*Y010344D01*Y010481D02*X026899D01*
X027082Y010344D02*Y010618D01*X027402Y010573D02*X027356Y010618D01*
X027219D01*Y010344D01*X027356D01*X027402Y01039D01*Y010573D01*
X027539D02*X027584Y010618D01*Y010344D01*X02763D01*X027584D02*
X027539D01*X026624Y042218D02*X026442D01*Y042081D01*Y041944D01*
Y042081D02*X026579D01*X026762Y041944D02*Y042218D01*X027082Y042173D02*
X027036Y042218D01*X026899D01*Y041944D01*X027036D01*X027082Y04199D01*
Y042173D01*X027173D02*X027219Y042218D01*X02731D01*X027356Y042173D01*
Y042127D01*X02731Y042081D01*X027173Y04199D01*Y041944D01*X027356D01*
X000784Y010778D02*X000602D01*Y010641D01*Y010504D01*Y010641D02*
X000739D01*X000922Y010504D02*Y010778D01*X001242Y010733D02*
X001196Y010778D01*X001059D01*Y010504D01*X001196D01*X001242Y01055D01*
Y010733D01*X001333D02*X001379Y010778D01*X00147D01*X001516Y010733D01*
Y010687D01*X00147Y010641D01*X001516Y010596D01*Y01055D01*
X00147Y010504D01*X001379D01*X001333Y01055D01*X00147Y010641D02*
X001424D01*D11*X000965Y011597D02*Y011549D01*X001013Y0115D01*X001062D01*
X001111Y011549D01*Y011791D01*X001062D01*X001159D01*X001305Y011743D02*
X001353Y011791D01*Y0115D01*X001402D01*X001353D02*X001305D01*D26*
X006571Y015598D02*X006357Y015812D01*X005714D01*Y014527D01*X006357D01*
X006571Y014741D01*Y015598D01*D11*X026655Y028217D02*Y028169D01*
X026703Y02812D01*X026752D01*X026801Y028169D01*Y028411D01*X026752D01*
X026849D01*X026995Y028363D02*X027043Y028411D01*Y02812D01*X027092D01*
X027043D02*X026995D01*X027432Y028363D02*X027383Y028411D01*X027286D01*
X027238Y028363D01*Y028169D01*X027286Y02812D01*X027383D01*
X027432Y028169D01*Y028363D01*X027335Y028314D02*Y028217D01*D23*
X020245Y032089D02*X02013Y032203D01*X019902D01*X019788Y032089D01*
Y031632D01*X019902Y031518D01*X02013D01*X020245Y031632D01*
X020473Y032203D02*Y031518D01*X02093D01*X021616Y032203D02*X021159D01*
Y031861D01*Y031518D01*X021616D01*X021159Y031861D02*X021502D01*
X021845Y031518D02*X022073Y032203D01*X022216Y031775D01*
X022302Y031518D01*X022216Y031775D02*X02193D01*X02253Y031518D02*
Y032203D01*X022873D01*X022988Y032089D01*Y031975D01*X022873Y031861D01*
X022988Y031518D01*X022873Y031861D02*X02253D01*D11*X000723Y004454D02*
Y004405D01*X000772Y004357D01*X00082D01*X000869Y004405D01*Y004648D01*
X00082D01*X000917D01*X001063Y0046D02*X001112Y004648D01*Y004357D01*
X00116D01*X001112D02*X001063D01*X001355Y0046D02*X001403Y004648D01*
Y004357D01*X001452D01*X001403D02*X001355D01*D25*X001927Y006163D02*
X00177Y00632D01*X001455D01*X001298Y006163D01*Y005535D01*
X001455Y005378D01*X00177D01*X001927Y005535D01*X002241Y005378D02*
X002555Y00632D01*X002752Y005731D01*X00287Y005378D01*X002752Y005731D02*
X002359D01*X003184Y005378D02*Y00632D01*X003655D01*X003812Y006163D01*
Y006006D01*X003655Y005849D01*X003812Y005378D01*X003655Y005849D02*
X003184D01*X004127Y005378D02*Y00632D01*X004598D01*X004755Y006163D01*
Y006006D01*X004598Y005849D01*X004755Y005378D01*X004598Y005849D02*
X004127D01*X00507Y00632D02*X005384Y005849D01*Y005378D01*Y005849D02*
X005698Y00632D01*D11*X000885Y017007D02*Y016959D01*X000933Y01691D01*
X000982D01*X001031Y016959D01*Y017201D01*X000982D01*X001079D01*
X001225Y017153D02*X001273Y017201D01*Y01691D01*X001322D01*X001273D02*
X001225D01*X001468Y017153D02*X001516Y017201D01*X001613D01*
X001662Y017153D01*Y017104D01*X001613Y017056D01*X001468Y016959D01*
Y01691D01*X001662D01*D23*X005116Y020818D02*Y021503D01*X005345D01*
X005116D02*X004888D01*X00603D02*X005573D01*Y021161D01*Y020818D01*
X00603D01*X005573Y021161D02*X005916D01*X006716Y021389D02*
X006602Y021503D01*X006373D01*X006259Y021389D01*Y021275D01*
X006373Y021161D01*X006602D01*X006716Y021046D01*Y020932D01*
X006602Y020818D01*X006373D01*X006259Y020932D01*X007173Y020818D02*
Y021503D01*X007402D01*X007173D02*X006945D01*D11*X000825Y028147D02*
Y028099D01*X000873Y02805D01*X000922D01*X000971Y028099D01*Y028341D01*
X000922D01*X001019D01*X001165Y028293D02*X001213Y028341D01*Y02805D01*
X001262D01*X001213D02*X001165D01*X001408Y028293D02*X001456Y028341D01*
X001553D01*X001602Y028293D01*Y028244D01*X001553Y028196D01*
X001602Y028147D01*Y028099D01*X001553Y02805D01*X001456D01*
X001408Y028099D01*X001553Y028196D02*X001505D01*D23*X005595Y032239D02*
X00548Y032353D01*X005252D01*X005138Y032239D01*Y031782D01*
X005252Y031668D01*X00548D01*X005595Y031782D01*X005823Y032353D02*
Y031668D01*X00628D01*X006966Y032353D02*X006509D01*Y032011D01*
Y031668D01*X006966D01*X006509Y032011D02*X006852D01*X007195Y031668D02*
X007423Y032353D01*X007566Y031925D01*X007652Y031668D01*
X007566Y031925D02*X00728D01*X00788Y031668D02*Y032353D01*X008223D01*
X008338Y032239D01*Y032125D01*X008223Y032011D01*X008338Y031668D01*
X008223Y032011D02*X00788D01*D11*X011763Y004484D02*Y004435D01*
X011812Y004387D01*X01186D01*X011909Y004435D01*Y004678D01*X01186D01*
X011957D01*X012103Y00463D02*X012152Y004678D01*Y004387D01*X0122D01*
X012152D02*X012103D01*X012492D02*Y004678D01*X012346Y004508D01*
X01254D01*D27*X01359Y005787D02*X014847D01*D11*X026745Y017177D02*
Y017129D01*X026793Y01708D01*X026842D01*X026891Y017129D01*Y017371D01*
X026842D01*X026939D01*X027085Y017323D02*X027133Y017371D01*Y01708D01*
X027182D01*X027133D02*X027085D01*X027522Y017371D02*X027328D01*
Y017226D01*X027376Y017274D01*X027473D01*X027522Y017226D01*Y017129D01*
X027473Y01708D01*X027376D01*X027328Y017129D01*D23*X021316Y020868D02*
Y021553D01*X021545D01*X021316D02*X021088D01*X02223D02*X021773D01*
Y021211D01*Y020868D01*X02223D01*X021773Y021211D02*X022116D01*
X022916Y021439D02*X022802Y021553D01*X022573D01*X022459Y021439D01*
Y021325D01*X022573Y021211D01*X022802D01*X022916Y021096D01*Y020982D01*
X022802Y020868D01*X022573D01*X022459Y020982D01*X023373Y020868D02*
Y021553D01*X023602D01*X023373D02*X023145D01*D11*X026913Y004514D02*
Y004465D01*X026962Y004417D01*X02701D01*X027059Y004465D01*Y004708D01*
X02701D01*X027107D01*X027253Y00466D02*X027302Y004708D01*Y004417D01*
X02735D01*X027302D02*X027253D01*X02769Y00466D02*X027642Y004708D01*
X027545D01*X027496Y00466D01*Y004465D01*X027545Y004417D01*X027642D01*
X02769Y004465D01*Y004538D01*X027642Y004587D01*X027545D01*
X027496Y004538D01*D25*X02358Y006163D02*X023423Y00632D01*X023109D01*
X022952Y006163D01*Y005535D01*X023109Y005378D01*X023423D01*
X02358Y005535D01*X024523Y006163D02*X024366Y00632D01*X024052D01*
X023894Y006163D01*Y005535D01*X024052Y005378D01*X024366D01*
X024523Y005535D01*Y006163D01*X024837Y00632D02*Y005535D01*
X024994Y005378D01*X025309D01*X025466Y005535D01*Y00632D01*
X02578Y005378D02*Y00632D01*X026409Y005378D01*Y00632D01*
X027037Y005378D02*Y00632D01*X027352D01*X027037D02*X026723D01*D11*
X006543Y004554D02*Y004505D01*X006592Y004457D01*X00664D01*
X006689Y004505D01*Y004748D01*X00664D01*X006737D01*X006883Y0047D02*
X006932Y004748D01*Y004457D01*X00698D01*X006932D02*X006883D01*
X007126Y004748D02*X00732D01*X007175Y004457D01*D25*X007991Y005378D02*
X008305Y00632D01*X008502Y005731D01*X00862Y005378D01*X008502Y005731D02*
X008109D01*X009562Y006163D02*X009405Y00632D01*X009091D01*
X008934Y006163D01*Y005535D01*X009091Y005378D01*X009405D01*
X009562Y005535D01*Y006163D01*X009248Y006006D02*Y005692D01*D11*
X021333Y004454D02*Y004405D01*X021382Y004357D01*X02143D01*
X021479Y004405D01*Y004648D01*X02143D01*X021527D01*X021673Y0046D02*
X021722Y004648D01*Y004357D01*X02177D01*X021722D02*X021673D01*
X022062Y004502D02*X02211Y004551D01*Y0046D01*X022062Y004648D01*
X021965D01*X021916Y0046D01*Y004551D01*X021965Y004502D01*X022062D01*
X02211Y004454D01*Y004405D01*X022062Y004357D01*X021965D01*
X021916Y004405D01*Y004454D01*X021965Y004502D01*D25*X019015Y005378D02*
X019329Y00632D01*X019525Y005731D01*X019643Y005378D01*X019525Y005731D02*
X019132D01*X020115Y006163D02*X020272Y00632D01*Y005378D01*X020429D01*
X020272D02*X020115D01*D11*X000675Y022877D02*Y022829D01*
X000723Y02278D01*X000772D01*X000821Y022829D01*Y023071D01*X000772D01*
X000869D01*X000966Y023023D02*X001015Y023071D01*X001112D01*
X001161Y023023D01*Y022974D01*X001112Y022926D01*X000966Y022829D01*
Y02278D01*X001161D01*D26*X006645Y026803D02*X005788D01*Y026161D01*
Y025518D01*X006645D01*X005788Y026161D02*X00643D01*D11*
X000795Y033917D02*Y033869D01*X000843Y03382D01*X000892D01*
X000941Y033869D01*Y034111D01*X000892D01*X000989D01*X001086Y034063D02*
X001135Y034111D01*X001232D01*X001281Y034063D01*Y034014D01*
X001232Y033966D01*X001281Y033917D01*Y033869D01*X001232Y03382D01*
X001135D01*X001086Y033869D01*X001232Y033966D02*X001183D01*D26*
X006545Y037753D02*X005688D01*Y037111D01*Y036468D01*Y037111D02*
X00633D01*D11*X005475Y047997D02*Y047949D01*X005523Y0479D01*X005572D01*
X005621Y047949D01*Y048191D01*X005572D01*X005669D01*X005912Y0479D02*
Y048191D01*X005766Y048021D01*X005961D01*D26*X002614Y042951D02*
X003042Y044236D01*X00331Y043433D01*X003471Y042951D01*X00331Y043433D02*
X002775D01*D11*X022715Y048467D02*Y048419D01*X022763Y04837D01*
X022812D01*X022861Y048419D01*Y048661D01*X022812D01*X022909D01*
X023201D02*X023006D01*Y048516D01*X023055Y048564D01*X023152D01*
X023201Y048516D01*Y048419D01*X023152Y04837D01*X023055D01*
X023006Y048419D01*D26*X024821Y042951D02*Y044236D01*X025463D01*
X025678Y044022D01*Y043808D01*X025463Y043594D01*X025678Y043379D01*
Y043165D01*X025463Y042951D01*X024821D01*X025463Y043594D02*X024821D01*
D11*X026855Y033827D02*Y033779D01*X026903Y03373D01*X026952D01*
X027001Y033779D01*Y034021D01*X026952D01*X027049D01*X027341Y033973D02*
X027292Y034021D01*X027195D01*X027146Y033973D01*Y033779D01*
X027195Y03373D01*X027292D01*X027341Y033779D01*Y033851D01*
X027292Y0339D01*X027195D01*X027146Y033851D01*D26*X022453Y037733D02*
X022239Y037947D01*X02181D01*X021596Y037733D01*Y036876D01*
X02181Y036662D01*X022239D01*X022453Y036876D01*Y037197D01*X022239D01*
D11*X026855Y022817D02*Y022769D01*X026903Y02272D01*X026952D01*
X027001Y022769D01*Y023011D01*X026952D01*X027049D01*X027146D02*
X027341D01*X027195Y02272D01*D26*X023245Y027239D02*X02303Y027453D01*
X022602D01*X022388Y027239D01*Y026382D01*X022602Y026168D01*X02303D01*
X023245Y026382D01*D11*X026795Y011457D02*Y011409D01*X026843Y01136D01*
X026892D01*X026941Y011409D01*Y011651D01*X026892D01*X026989D01*
X027232Y011506D02*X027281Y011554D01*Y011603D01*X027232Y011651D01*
X027135D01*X027086Y011603D01*Y011554D01*X027135Y011506D01*X027232D01*
X027281Y011457D01*Y011409D01*X027232Y01136D01*X027135D01*
X027086Y011409D01*Y011457D01*X027135Y011506D01*D26*X021971Y015848D02*
X021757Y016062D01*X021114D01*Y014777D01*X021757D01*X021971Y014991D01*
Y015848D01*X0224Y014777D02*Y016062D01*X023042D01*X023257Y015848D01*
Y015634D01*X023042Y01542D01*X0224D01*D11*X011435Y048197D02*Y048149D01*
X011483Y0481D01*X011532D01*X011581Y048149D01*Y048391D01*X011532D01*
X011629D01*X011726Y048149D02*X011775Y0481D01*X011872D01*
X011921Y048149D01*Y048343D01*X011872Y048391D01*X011775D01*
X011726Y048343D01*Y04827D01*X011775Y048221D01*X011872D01*
X011921Y04827D01*D27*X013584Y043347D02*X014842D01*X014213Y043975D02*
Y042718D01*D10*X019479Y022603D02*Y022877D01*X01957Y02274D01*
X019662Y022877D01*Y022603D01*X019936Y022832D02*X01989Y022877D01*
X019799D01*X019753Y022832D01*Y022649D01*X019799Y022603D01*X01989D01*
X019936Y022649D01*Y022832D01*X02021D02*X020165Y022877D01*X020028D01*
Y022603D01*X020165D01*X02021Y022649D01*Y022832D01*X020348D02*
X020393Y022877D01*Y022603D01*X020439D01*X020393D02*X020348D01*
X016458Y014774D02*Y015048D01*X016596D01*X016641Y015002D01*Y014957D01*
X016596Y014911D01*X016641Y014774D01*X016596Y014911D02*X016458D01*
X016778Y015002D02*X016824Y015048D01*Y014774D01*X01687D01*X016824D02*
X016778D01*X016358Y013752D02*X016404Y013798D01*X016496D01*
X016541Y013752D01*Y013707D01*X016496Y013661D01*X016358Y013569D01*
Y013524D01*X016541D01*X016816Y013752D02*X01677Y013798D01*X016678D01*
X016633Y013752D01*Y013569D01*X016678Y013524D01*X01677D01*
X016816Y013569D01*Y013638D01*X01677Y013684D01*X016678D01*
X016633Y013638D01*X016953Y013752D02*X016998Y013798D01*Y013524D01*
X017044D01*X016998D02*X016953D01*X019589Y039469D02*X019314D01*
Y039606D01*X01936Y039652D01*X019406D01*X019452Y039606D01*
X019589Y039652D01*X019452Y039606D02*Y039469D01*X01936Y039789D02*
X019314Y039835D01*X019589D01*Y03988D01*Y039835D02*Y039789D01*
X01936Y0402D02*X019314Y040155D01*Y040063D01*X01936Y040018D01*
X019543D01*X019589Y040063D01*Y040155D01*X019543Y0402D01*X01936D01*
X019406Y040109D02*X019497D01*X02061Y039519D02*X020564Y039565D01*
Y039656D01*X02061Y039702D01*X020656D01*X020702Y039656D01*
X020793Y039519D01*X020839D01*Y039702D01*X02061Y039976D02*
X020564Y03993D01*Y039839D01*X02061Y039793D01*X020793D01*
X020839Y039839D01*Y03993D01*X020793Y039976D01*X020724D01*
X020679Y03993D01*Y039839D01*X020724Y039793D01*X02061Y040113D02*
X020564Y040159D01*X020839D01*Y040205D01*Y040159D02*Y040113D01*
X009434Y039529D02*X009159D01*Y039667D01*X009205Y039712D01*X009251D01*
X009296Y039667D01*X009434Y039712D01*X009296Y039667D02*Y039529D01*
X009205Y039849D02*X009159Y039895D01*X009434D01*Y039941D01*Y039895D02*
Y039849D01*X009205Y040124D02*X009159Y040169D01*X009434D01*Y040215D01*
Y040169D02*Y040124D01*X010405Y039419D02*X010359Y039465D01*Y039557D01*
X010405Y039602D01*X010451D01*X010496Y039557D01*X010588Y039419D01*
X010634D01*Y039602D01*X010405Y039877D02*X010359Y039831D01*Y039739D01*
X010405Y039694D01*X010588D01*X010634Y039739D01*Y039831D01*
X010588Y039877D01*X010519D01*X010474Y039831D01*Y039739D01*
X010519Y039694D01*X010405Y040014D02*X010359Y040059D01*X010634D01*
Y040105D01*Y040059D02*Y040014D01*X008819Y036205D02*Y036479D01*
X008956D01*X009002Y036433D01*Y036388D01*X008956Y036342D01*
X009002Y036205D01*X008956Y036342D02*X008819D01*X009139Y036433D02*
X009185Y036479D01*Y036205D01*X00923D01*X009185D02*X009139D01*
X009368Y036433D02*X009413Y036479D01*X009505D01*X00955Y036433D01*
Y036388D01*X009505Y036342D01*X009368Y036251D01*Y036205D01*X00955D01*
X008699Y035273D02*X008745Y035319D01*X008836D01*X008882Y035273D01*
Y035228D01*X008836Y035182D01*X008699Y035091D01*Y035045D01*X008882D01*
X009156Y035273D02*X00911Y035319D01*X009019D01*X008973Y035273D01*
Y035091D01*X009019Y035045D01*X00911D01*X009156Y035091D01*Y035159D01*
X00911Y035205D01*X009019D01*X008973Y035159D01*X009293Y035273D02*
X009339Y035319D01*Y035045D01*X009385D01*X009339D02*X009293D01*
X008311Y024712D02*Y024987D01*X008448D01*X008494Y024941D01*Y024895D01*
X008448Y02485D01*X008494Y024712D01*X008448Y02485D02*X008311D01*
X008631Y024941D02*X008677Y024987D01*Y024712D01*X008722D01*X008677D02*
X008631D01*X00886Y024941D02*X008905Y024987D01*X008997D01*
X009042Y024941D01*Y024895D01*X008997Y02485D01*X009042Y024804D01*
Y024758D01*X008997Y024712D01*X008905D01*X00886Y024758D01*
X008997Y02485D02*X008951D01*X008076Y023753D02*X008122Y023799D01*
X008214D01*X008259Y023753D01*Y023708D01*X008214Y023662D01*
X008076Y02357D01*Y023525D01*X008259D01*X008534Y023753D02*
X008488Y023799D01*X008396D01*X008351Y023753D01*Y02357D01*
X008396Y023525D01*X008488D01*X008534Y02357D01*Y023639D01*
X008488Y023685D01*X008396D01*X008351Y023639D01*X008671Y023753D02*
X008716Y023799D01*Y023525D01*X008762D01*X008716D02*X008671D01*
X007723Y01437D02*X007449D01*Y014507D01*X007495Y014553D01*X00754D01*
X007586Y014507D01*X007723Y014553D01*X007586Y014507D02*Y01437D01*
X007495Y01469D02*X007449Y014736D01*X007723D01*Y014781D01*Y014736D02*
Y01469D01*Y015056D02*X007449D01*X007609Y014919D01*Y015101D01*
X007945Y013241D02*X007899Y013286D01*Y013378D01*X007945Y013423D01*
X00799D01*X008036Y013378D01*X008128Y013241D01*X008173D01*Y013423D01*
X007945Y013698D02*X007899Y013652D01*Y013561D01*X007945Y013515D01*
X008128D01*X008173Y013561D01*Y013652D01*X008128Y013698D01*X008059D01*
X008013Y013652D01*Y013561D01*X008059Y013515D01*X007945Y013835D02*
X007899Y013881D01*X008173D01*Y013926D01*Y013881D02*Y013835D01*
X013753Y013513D02*X013479D01*Y013651D01*X013525Y013696D01*X01357D01*
X013616Y013651D01*X013753Y013696D01*X013616Y013651D02*Y013513D01*
X013525Y013833D02*X013479Y013879D01*X013753D01*Y013925D01*Y013879D02*
Y013833D01*X013479Y014245D02*Y014062D01*X013616D01*X01357Y014108D01*
Y014199D01*X013616Y014245D01*X013708D01*X013753Y014199D01*Y014108D01*
X013708Y014062D01*X011153Y017023D02*X010879D01*Y017161D01*
X010925Y017206D01*X01097D01*X011016Y017161D01*X011153Y017206D01*
X011016Y017161D02*Y017023D01*X010925Y017343D02*X010879Y017389D01*
X011153D01*Y017435D01*Y017389D02*Y017343D01*X010925Y017755D02*
X010879Y017709D01*Y017618D01*X010925Y017572D01*X011108D01*
X011153Y017618D01*Y017709D01*X011108Y017755D01*X011039D01*
X010993Y017709D01*Y017618D01*X011039Y017572D01*X009755Y016813D02*
X009709Y016859D01*Y016951D01*X009755Y016996D01*X0098D01*
X009846Y016951D01*X009938Y016813D01*X009983D01*Y016996D01*Y017156D02*
Y017179D01*X00996D01*Y017156D01*X009983D01*X009755Y017362D02*
X009709Y017408D01*Y017499D01*X009755Y017545D01*X0098D01*
X009846Y017499D01*X009938Y017362D01*X009983D01*Y017545D01*
X009755Y017682D02*X009709Y017728D01*X009983D01*Y017773D01*Y017728D02*
Y017682D01*X009709Y017933D02*X009983D01*X009915D02*X009778Y018071D01*
X009983D02*X00988Y017968D01*X008875Y030767D02*Y031041D01*X009012D01*
X009058Y030995D01*Y03095D01*X009012Y030904D01*X009058Y030767D01*
X009012Y030904D02*X008875D01*X009195Y030995D02*X00924Y031041D01*
Y030767D01*X009286D01*X00924D02*X009195D01*X009423Y031041D02*
X009606D01*X009469Y030767D01*X008805Y029795D02*X00885Y029841D01*
X008942D01*X008988Y029795D01*Y02975D01*X008942Y029704D01*
X008805Y029612D01*Y029567D01*X008988D01*X009148D02*X00917D01*Y02959D01*
X009148D01*Y029567D01*X009353Y029795D02*X009399Y029841D01*X00949D01*
X009536Y029795D01*Y02975D01*X00949Y029704D01*X009353Y029612D01*
Y029567D01*X009536D01*X009673Y029795D02*X009719Y029841D01*Y029567D01*
X009765D01*X009719D02*X009673D01*X009925Y029841D02*Y029567D01*
Y029635D02*X010062Y029772D01*Y029567D02*X009959Y02967D01*
X011766Y014453D02*X011492D01*Y01459D01*X011538Y014636D01*X011583D01*
X011629Y01459D01*X011766Y014636D01*X011629Y01459D02*Y014453D01*
X011538Y014773D02*X011492Y014818D01*X011766D01*Y014864D01*Y014818D02*
Y014773D01*X011629Y015138D02*X011583Y015184D01*X011538D01*
X011492Y015138D01*Y015047D01*X011538Y015001D01*X011583D01*
X011629Y015047D01*Y015138D01*X011675Y015184D01*X011721D01*
X011766Y015138D01*Y015047D01*X011721Y015001D01*X011675D01*
X011629Y015047D01*X009923Y014241D02*X009649D01*Y014378D01*
X009695Y014423D01*X00974D01*X009786Y014378D01*X009923Y014423D01*
X009786Y014378D02*Y014241D01*X009695Y014561D02*X009649Y014606D01*
X009923D01*Y014652D01*Y014606D02*Y014561D01*X009878Y014789D02*
X009923Y014835D01*Y014926D01*X009878Y014972D01*X009695D01*
X009649Y014926D01*Y014835D01*X009695Y014789D01*X009763D01*
X009809Y014835D01*Y014926D01*X009763Y014972D01*X010138Y013873D02*
X010092Y013918D01*Y01401D01*X010138Y014056D01*X010183D01*
X010229Y01401D01*X010321Y013873D01*X010366D01*Y014056D01*Y014216D02*
Y014238D01*X010343D01*Y014216D01*X010366D01*X010138Y014421D02*
X010092Y014467D01*Y014558D01*X010138Y014604D01*X010183D01*
X010229Y014558D01*X010321Y014421D01*X010366D01*Y014604D01*
X010138Y014741D02*X010092Y014787D01*X010366D01*Y014833D01*Y014787D02*
Y014741D01*X010092Y014993D02*X010366D01*X010298D02*X010161Y01513D01*
X010366D02*X010263Y015027D01*X008939Y028885D02*Y029159D01*X009076D01*
X009122Y029113D01*Y029068D01*X009076Y029022D01*X009122Y028885D01*
X009076Y029022D02*X008939D01*X009213Y029113D02*X009259Y029159D01*
X00935D01*X009396Y029113D01*Y029068D01*X00935Y029022D01*
X009213Y028931D01*Y028885D01*X009396D01*X008665Y027953D02*
X00871Y027999D01*Y027725D01*X008756D01*X00871D02*X008665D01*
X009076Y027953D02*X00903Y027999D01*X008939D01*X008893Y027953D01*
Y027771D01*X008939Y027725D01*X00903D01*X009076Y027771D01*Y027953D01*
X008985Y027908D02*Y027816D01*X00935Y027953D02*X009305Y027999D01*
X009213D01*X009168Y027953D01*Y027771D01*X009213Y027725D01*X009305D01*
X00935Y027771D01*Y027953D01*X009259Y027908D02*Y027816D01*
X009465Y027999D02*Y027725D01*Y027793D02*X009602Y027931D01*Y027725D02*
X009499Y027828D01*X020106Y014353D02*X019832D01*Y01449D01*
X019878Y014536D01*X019923D01*X019969Y01449D01*X020106Y014536D01*
X019969Y01449D02*Y014353D01*X019878Y014627D02*X019832Y014673D01*
Y014764D01*X019878Y01481D01*X019923D01*X019969Y014764D01*
X020061Y014627D01*X020106D01*Y01481D01*X019878Y015084D02*
X019832Y015038D01*Y014947D01*X019878Y014901D01*X020061D01*
X020106Y014947D01*Y015038D01*X020061Y015084D01*X019878D01*
X019923Y014993D02*X020015D01*X020938Y013123D02*X020892Y013168D01*
Y01326D01*X020938Y013306D01*X020983D01*X021029Y01326D01*
X021121Y013123D01*X021166D01*Y013306D01*Y013466D02*Y013488D01*
X021143D01*Y013466D01*X021166D01*X020938Y013671D02*X020892Y013717D01*
Y013808D01*X020938Y013854D01*X020983D01*X021029Y013808D01*
X021121Y013671D01*X021166D01*Y013854D01*X020938Y013991D02*
X020892Y014037D01*X021166D01*Y014083D01*Y014037D02*Y013991D01*
X020892Y014243D02*X021166D01*X021098D02*X020961Y01438D01*X021166D02*
X021063Y014277D01*X0217Y011496D02*X021426D01*Y011633D01*
X021471Y011679D01*X021517D01*X021563Y011633D01*X0217Y011679D01*
X021563Y011633D02*Y011496D01*X021471Y01177D02*X021426Y011816D01*
Y011907D01*X021471Y011953D01*X021517D01*X021563Y011907D01*
X021654Y01177D01*X0217D01*Y011953D01*X021471Y01209D02*
X021426Y012136D01*X0217D01*Y012181D01*Y012136D02*Y01209D01*
X022021Y012431D02*X021976Y012477D01*X02225D01*Y012523D01*Y012477D02*
Y012431D01*X022021Y012843D02*X021976Y012797D01*Y012706D01*
X022021Y01266D01*X022204D01*X02225Y012706D01*Y012797D01*
X022204Y012843D01*X022021D01*X022067Y012751D02*X022159D01*
X022021Y013117D02*X021976Y013071D01*Y01298D01*X022021Y012934D01*
X022204D01*X02225Y01298D01*Y013071D01*X022204Y013117D01*X022021D01*
X022067Y013026D02*X022159D01*X021976Y013231D02*X02225D01*X022181D02*
X022044Y013369D01*X02225D02*X022147Y013266D01*X01873Y020397D02*
Y020671D01*X018867D01*X018913Y020625D01*Y02058D01*X018867Y020534D01*
X018913Y020397D01*X018867Y020534D02*X01873D01*X019005Y020625D02*
X01905Y020671D01*X019142D01*X019187Y020625D01*Y02058D01*
X019142Y020534D01*X019005Y020442D01*Y020397D01*X019187D01*
X019279Y020625D02*X019325Y020671D01*X019416D01*X019462Y020625D01*
Y02058D01*X019416Y020534D01*X019279Y020442D01*Y020397D01*X019462D01*
X004533Y008958D02*Y009232D01*X00467D01*X004716Y009186D01*Y009141D01*
X00467Y009095D01*X004716Y008958D01*X00467Y009095D02*X004533D01*
X004807Y009186D02*X004853Y009232D01*X004945D01*X00499Y009186D01*
Y009141D01*X004945Y009095D01*X004807Y009003D01*Y008958D01*X00499D01*
X005082Y009186D02*X005127Y009232D01*X005219D01*X005265Y009186D01*
Y009141D01*X005219Y009095D01*X005265Y009049D01*Y009003D01*
X005219Y008958D01*X005127D01*X005082Y009003D01*X005219Y009095D02*
X005173D01*X002044Y009186D02*X00209Y009232D01*Y008958D01*X002135D01*
X00209D02*X002044D01*X002341D02*X002364D01*Y008981D01*X002341D01*
Y008958D01*X00273Y009186D02*X002684Y009232D01*X002593D01*
X002547Y009186D01*Y009003D01*X002593Y008958D01*X002684D01*
X00273Y009003D01*Y009186D01*X002638Y009141D02*Y009049D01*
X003004Y009186D02*X002958Y009232D01*X002867D01*X002821Y009186D01*
Y009003D01*X002867Y008958D01*X002958D01*X003004Y009003D01*Y009186D01*
X002913Y009141D02*Y009049D01*X003118Y009232D02*Y008958D01*Y009026D02*
X003255Y009163D01*Y008958D02*X003153Y009061D01*X004533Y010139D02*
Y010413D01*X00467D01*X004716Y010367D01*Y010322D01*X00467Y010276D01*
X004716Y010139D01*X00467Y010276D02*X004533D01*X004807Y010367D02*
X004853Y010413D01*X004945D01*X00499Y010367D01*Y010322D01*
X004945Y010276D01*X004807Y010185D01*Y010139D01*X00499D01*X005219D02*
Y010413D01*X005082Y010253D01*X005265D01*X001998Y010367D02*
X002044Y010413D01*X002135D01*X002181Y010367D01*Y010322D01*
X002135Y010276D01*X001998Y010185D01*Y010139D01*X002181D01*X002341D02*
X002364D01*Y010162D01*X002341D01*Y010139D01*X002547Y010367D02*
X002593Y010413D01*X002684D01*X00273Y010367D01*Y010322D01*
X002684Y010276D01*X002547Y010185D01*Y010139D01*X00273D01*
X002867Y010367D02*X002913Y010413D01*Y010139D01*X002958D01*X002913D02*
X002867D01*X003118Y010413D02*Y010139D01*Y010207D02*X003255Y010345D01*
Y010139D02*X003153Y010242D01*X017195Y008637D02*Y008911D01*X017332D01*
X017378Y008865D01*Y00882D01*X017332Y008774D01*X017378Y008637D01*
X017332Y008774D02*X017195D01*X01747Y008865D02*X017515Y008911D01*
X017607D01*X017652Y008865D01*Y00882D01*X017607Y008774D01*
X01747Y008683D01*Y008637D01*X017652D01*X017927Y008911D02*X017744D01*
Y008774D01*X01779Y00882D01*X017881D01*X017927Y008774D01*Y008683D01*
X017881Y008637D01*X01779D01*X017744Y008683D01*X017796Y008319D02*
X017841Y008364D01*X017933D01*X017979Y008319D01*Y008273D01*
X017933Y008227D01*X017979Y008181D01*Y008136D01*X017933Y00809D01*
X017841D01*X017796Y008136D01*X017933Y008227D02*X017887D01*
X018139Y00809D02*X018161D01*Y008113D01*X018139D01*Y00809D01*
X018481Y008227D02*X018527Y008273D01*Y008319D01*X018481Y008364D01*
X01839D01*X018344Y008319D01*Y008273D01*X01839Y008227D01*X018481D01*
X018527Y008181D01*Y008136D01*X018481Y00809D01*X01839D01*
X018344Y008136D01*Y008181D01*X01839Y008227D01*X018619Y008319D02*
X018664Y008364D01*X018756D01*X018801Y008319D01*Y008273D01*
X018756Y008227D01*X018801Y008181D01*Y008136D01*X018756Y00809D01*
X018664D01*X018619Y008136D01*X018756Y008227D02*X01871D01*
X018916Y008364D02*Y00809D01*Y008159D02*X019053Y008296D01*Y00809D02*
X01895Y008193D01*X017235Y009523D02*Y009797D01*X017372D01*
X017418Y009751D01*Y009705D01*X017372Y00966D01*X017418Y009523D01*
X017372Y00966D02*X017235D01*X017509Y009751D02*X017555Y009797D01*
X017646D01*X017692Y009751D01*Y009705D01*X017646Y00966D01*
X017509Y009568D01*Y009523D01*X017692D01*X017966Y009751D02*
X017921Y009797D01*X017829D01*X017784Y009751D01*Y009568D01*
X017829Y009523D01*X017921D01*X017966Y009568D01*Y009637D01*
X017921Y009683D01*X017829D01*X017784Y009637D01*X019497Y00976D02*
X019314D01*Y009623D01*X01936Y009669D01*X019451D01*X019497Y009623D01*
Y009531D01*X019451Y009486D01*X01936D01*X019314Y009531D01*
X019657Y009486D02*X01968D01*Y009509D01*X019657D01*Y009486D01*
X019863Y00976D02*X020045D01*X019908Y009486D01*X02032Y009714D02*
X020274Y00976D01*X020183D01*X020137Y009714D01*Y009531D01*
X020183Y009486D01*X020274D01*X02032Y009531D01*Y0096D01*
X020274Y009646D01*X020183D01*X020137Y0096D01*X020434Y00976D02*
Y009486D01*Y009554D02*X020571Y009691D01*Y009486D02*X020468Y009589D01*
X017235Y010273D02*Y010547D01*X017372D01*X017418Y010502D01*Y010456D01*
X017372Y01041D01*X017418Y010273D01*X017372Y01041D02*X017235D01*
X017509Y010502D02*X017555Y010547D01*X017646D01*X017692Y010502D01*
Y010456D01*X017646Y01041D01*X017509Y010319D01*Y010273D01*X017692D01*
X017784Y010547D02*X017966D01*X017829Y010273D01*X019451D02*Y010547D01*
X019314Y010387D01*X019497D01*X019657Y010273D02*X01968D01*Y010296D01*
X019657D01*Y010273D01*X019863Y010547D02*X020045D01*X019908Y010273D01*
X02032Y010547D02*X020137D01*Y01041D01*X020183Y010456D01*X020274D01*
X02032Y01041D01*Y010319D01*X020274Y010273D01*X020183D01*
X020137Y010319D01*X020434Y010547D02*Y010273D01*Y010342D02*
X020571Y010479D01*Y010273D02*X020468Y010376D01*X011123Y018743D02*
X010849D01*Y018881D01*X010895Y018926D01*X01094D01*X010986Y018881D01*
X011123Y018926D01*X010986Y018881D02*Y018743D01*X010895Y019018D02*
X010849Y019063D01*Y019155D01*X010895Y019201D01*X01094D01*
X010986Y019155D01*X011032Y019201D01*X011078D01*X011123Y019155D01*
Y019063D01*X011078Y019018D01*X010986Y019155D02*Y019109D01*
X010355Y019629D02*X010309Y019675D01*X010583D01*Y019721D01*Y019675D02*
Y019629D01*X010355Y020041D02*X010309Y019995D01*Y019903D01*
X010355Y019858D01*X010538D01*X010583Y019903D01*Y019995D01*
X010538Y020041D01*X010355D01*X0104Y019949D02*X010492D01*
X010355Y020315D02*X010309Y020269D01*Y020178D01*X010355Y020132D01*
X010538D01*X010583Y020178D01*Y020269D01*X010538Y020315D01*X010355D01*
X0104Y020223D02*X010492D01*X010309Y020429D02*X010583D01*X010515D02*
X010378Y020566D01*X010583D02*X01048Y020463D01*X01194Y013257D02*
Y013531D01*X012077D01*X012123Y013485D01*Y01344D01*X012077Y013394D01*
X012123Y013257D01*X012077Y013394D02*X01194D01*X012352Y013257D02*
Y013531D01*X012215Y013371D01*X012397D01*X010083Y013241D02*X009809D01*
Y013378D01*X009855Y013423D01*X0099D01*X009946Y013378D01*
X010083Y013423D01*X009946Y013378D02*Y013241D01*X009809Y013698D02*
Y013515D01*X009946D01*X0099Y013561D01*Y013652D01*X009946Y013698D01*
X010038D01*X010083Y013652D01*Y013561D01*X010038Y013515D01*
X012766Y014663D02*X012492D01*Y0148D01*X012538Y014846D01*X012583D01*
X012629Y0148D01*X012766Y014846D01*X012629Y0148D02*Y014663D01*
X012538Y01512D02*X012492Y015074D01*Y014983D01*X012538Y014937D01*
X012721D01*X012766Y014983D01*Y015074D01*X012721Y01512D01*X012652D01*
X012606Y015074D01*Y014983D01*X012652Y014937D01*X0151Y012657D02*
Y012931D01*X015237D01*X015283Y012885D01*Y01284D01*X015237Y012794D01*
X015283Y012657D01*X015237Y012794D02*X0151D01*X015375Y012931D02*
X015557D01*X01542Y012657D01*X014148Y013806D02*X014193Y013851D01*
Y013577D01*X014239D01*X014193D02*X014148D01*X014559Y013806D02*
X014513Y013851D01*X014422D01*X014376Y013806D01*Y013623D01*
X014422Y013577D01*X014513D01*X014559Y013623D01*Y013806D01*
X014468Y01376D02*Y013668D01*X014833Y013806D02*X014788Y013851D01*
X014696D01*X014651Y013806D01*Y013623D01*X014696Y013577D01*X014788D01*
X014833Y013623D01*Y013806D01*X014742Y01376D02*Y013668D01*
X014948Y013851D02*Y013577D01*Y013646D02*X015085Y013783D01*Y013577D02*
X014982Y01368D01*X018783Y02597D02*Y026244D01*X01892D01*
X018966Y026198D01*Y026152D01*X01892Y026107D01*X018966Y02597D01*
X01892Y026107D02*X018783D01*X019195D02*X01924Y026152D01*Y026198D01*
X019195Y026244D01*X019103D01*X019057Y026198D01*Y026152D01*
X019103Y026107D01*X019195D01*X01924Y026061D01*Y026015D01*
X019195Y02597D01*X019103D01*X019057Y026015D01*Y026061D01*
X019103Y026107D01*X018733Y024948D02*X018779Y024994D01*X01887D01*
X018916Y024948D01*Y024902D01*X01887Y024857D01*X018733Y024765D01*
Y02472D01*X018916D01*X01919Y024948D02*X019145Y024994D01*X019053D01*
X019007Y024948D01*Y024765D01*X019053Y02472D01*X019145D01*
X01919Y024765D01*Y024834D01*X019145Y02488D01*X019053D01*
X019007Y024834D01*X019327Y024948D02*X019373Y024994D01*Y02472D01*
X019419D01*X019373D02*X019327D01*X019752Y036217D02*Y036491D01*
X019889D01*X019935Y036445D01*Y0364D01*X019889Y036354D01*
X019935Y036217D01*X019889Y036354D02*X019752D01*X020026Y036262D02*
X020072Y036217D01*X020163D01*X020209Y036262D01*Y036445D01*
X020163Y036491D01*X020072D01*X020026Y036445D01*Y036377D01*
X020072Y036331D01*X020163D01*X020209Y036377D01*X019562Y035245D02*
X019608Y035291D01*X019699D01*X019745Y035245D01*Y0352D01*
X019699Y035154D01*X019562Y035062D01*Y035017D01*X019745D01*
X020019Y035245D02*X019973Y035291D01*X019882D01*X019836Y035245D01*
Y035062D01*X019882Y035017D01*X019973D01*X020019Y035062D01*Y035131D01*
X019973Y035177D01*X019882D01*X019836Y035131D01*X020156Y035245D02*
X020202Y035291D01*Y035017D01*X020248D01*X020202D02*X020156D01*D14*
X005088Y007911D02*X00503Y007853D01*Y007739D01*X005088Y007682D01*
X005145D01*X005202Y007739D01*Y007853D01*X005259Y007911D01*X005316D01*
X005373Y007853D01*Y007739D01*X005316Y007682D01*X00503Y008025D02*
X005373Y008082D01*X00503Y008139D01*X005373Y008196D01*X00503Y008253D01*
X005088Y008425D02*X00503Y008482D01*X005373D01*Y008539D01*Y008482D02*
Y008425D01*D10*X021064Y029813D02*X021019Y029858D01*X020927D01*
X020882Y029813D01*Y029767D01*X020927Y029721D01*X021019D01*
X021064Y029676D01*Y02963D01*X021019Y029584D01*X020927D01*
X020882Y02963D01*X021156Y029858D02*X021202Y029584D01*X021247Y029858D01*
X021293Y029584D01*X021339Y029858D01*X02143Y029813D02*X021476Y029858D01*
X021567D01*X021613Y029813D01*Y029767D01*X021567Y029721D01*
X02143Y02963D01*Y029584D01*X021613D01*X025024Y008813D02*
X024979Y008858D01*X024887D01*X024842Y008813D01*Y008767D01*
X024887Y008721D01*X024979D01*X025024Y008676D01*Y00863D01*
X024979Y008584D01*X024887D01*X024842Y00863D01*X025116Y008858D02*
X025162Y008584D01*X025207Y008858D01*X025253Y008584D01*
X025299Y008858D01*X02539Y008813D02*X025436Y008858D01*X025527D01*
X025573Y008813D01*Y008767D01*X025527Y008721D01*X025573Y008676D01*
Y00863D01*X025527Y008584D01*X025436D01*X02539Y00863D01*
X025527Y008721D02*X025482D01*X01811Y013185D02*Y013459D01*X018202D01*
X01811D02*X018019D01*X018293Y013185D02*Y013459D01*X01843D01*
X018476Y013413D01*Y013368D01*X01843Y013322D01*X018293D01*
X018613Y013413D02*X018659Y013459D01*Y013185D01*X018705D01*X018659D02*
X018613D01*D16*X018318Y012059D02*X018255Y012122D01*X018129D01*
X018066Y012059D01*Y011808D01*X018129Y011745D01*X018255D01*
X018318Y011808D01*Y011902D01*X018255D01*X018443Y011745D02*Y012122D01*
X018695Y011745D01*Y012122D01*X019072Y012059D02*X019009Y012122D01*
X01882D01*Y011745D01*X019009D01*X019072Y011808D01*Y012059D01*D10*
X016449Y020927D02*Y020699D01*X016495Y020653D01*X016586D01*
X016632Y020699D01*Y020927D01*X016723Y020882D02*X016769Y020927D01*
X01686D01*X016906Y020882D01*Y020836D01*X01686Y02079D01*
X016723Y020699D01*Y020653D01*X016906D01*
M02*