%FSTAX24Y24*%
%MOIN*%
%IN AUX6.GBR *%
%ADD10C,0.0050*%
D10*Y024803D02*G01Y048425D01*X000018Y04863D01*X000071Y048829D01*
X000158Y049016D01*X000276Y049184D01*X000422Y04933D01*X000591Y049448D01*
X000777Y049535D01*X000976Y049588D01*X001181Y049606D01*X027165D01*
X02737Y049588D01*X027569Y049535D01*X027756Y049448D01*X027925Y04933D01*
X02807Y049184D01*X028188Y049016D01*X028275Y048829D01*X028329Y04863D01*
X028346Y048425D01*Y001181D01*X028329Y000976D01*X028275Y000777D01*
X028188Y000591D01*X02807Y000422D01*X027925Y000276D01*X027756Y000158D01*
X027569Y000071D01*X02737Y000018D01*X027165Y0D01*X001181D01*
X000976Y000018D01*X000777Y000071D01*X000591Y000158D01*
X000422Y000276D01*X000276Y000422D01*X000158Y000591D01*
X000071Y000777D01*X000018Y000976D01*X0Y001181D01*Y024803D01*
X011024Y030512D02*Y035039D01*X011043Y035161D01*X011099Y035271D01*
X011186Y035358D01*X011296Y035414D01*X011417Y035433D01*X016929D01*
X017051Y035414D01*X017161Y035358D01*X017248Y035271D01*
X017304Y035161D01*X017323Y035039D01*Y025984D01*X017304Y025863D01*
X017248Y025753D01*X017161Y025666D01*X017051Y02561D01*X016929Y025591D01*
X011417D01*X011296Y02561D01*X011186Y025666D01*X011099Y025753D01*
X011043Y025863D01*X011024Y025984D01*Y030512D01*
M02*