%FSTAX24Y24*%
%MOIN*%
%IN LAYER1.GBR *%
%ADD10C,0.0050*%
%ADD11C,0.0080*%
%ADD12C,0.0100*%
%ADD13C,0.0157*%
%ADD14C,0.0160*%
%ADD15C,0.0180*%
%ADD16C,0.0197*%
%ADD17C,0.0200*%
%ADD18C,0.0220*%
%ADD19C,0.0240*%
%ADD20C,0.0260*%
%ADD21C,0.0280*%
%ADD22C,0.0357*%
%ADD23C,0.0400*%
%ADD24C,0.0560*%
%ADD25C,0.0600*%
%ADD26C,0.0630*%
%ADD27C,0.0650*%
%ADD28C,0.0810*%
%ADD29C,0.1000*%
%ADD30C,0.1160*%
%ADD31C,0.4331*%
%ADD32C,0.4491*%
%ADD33R,0.0200X0.0250*%
%ADD34R,0.0250X0.0200*%
%ADD35R,0.0276X0.0276*%
%ADD36R,0.0394X0.0217*%
%ADD37R,0.0394X0.0354*%
%ADD38R,0.0413X0.0425*%
%ADD39R,0.0420X0.0470*%
%ADD40R,0.0425X0.0413*%
%ADD41R,0.0436X0.0436*%
%ADD42R,0.0470X0.0420*%
%ADD43R,0.0472X0.0236*%
%ADD44R,0.0520X0.0661*%
%ADD45R,0.0554X0.0377*%
%ADD46R,0.0554X0.0514*%
%ADD47R,0.0573X0.0585*%
%ADD48R,0.0585X0.0573*%
%ADD49R,0.0630X0.0512*%
%ADD50R,0.0632X0.0396*%
%ADD51R,0.0650X0.0650*%
%ADD52R,0.0680X0.0821*%
%ADD53R,0.0685X0.0673*%
%ADD54R,0.0810X0.0810*%
%ADD55R,0.0890X0.0772*%
%ADD56R,0.1000X0.1000*%
%ADD57R,0.1160X0.1160*%
%ADD58R,0.1350X0.0700*%
%ADD59R,0.1510X0.0860*%
D10*X013726Y022777D02*G01X015046Y024057D01*X016766D01*Y022217D01*
X016206Y021817D01*X015526Y022417D01*X014926D01*X014366Y022777D01*
X013726D01*G36*G01X015046Y024057D01*X016766D01*Y022217D01*
X016206Y021817D01*X015526Y022417D01*X014926D01*X014366Y022777D01*
X013726D01*G37*X016926Y024057D02*G01X018366D01*X019006Y024737D01*
X020766D01*X020726Y022457D01*X016926D01*Y024057D01*G36*G01X018366D01*
X019006Y024737D01*X020766D01*X020726Y022457D01*X016926D01*Y024057D01*
G37*
%LPC*%
D55*X015173Y020139D03*D50*X016233Y02032D03*D55*X015173Y019352D03*D50*
X016233Y019572D03*D53*X012173Y016904D03*D28*Y015945D03*D48*Y014704D03*
D53*Y017585D03*X013173D03*D23*X012693Y017905D03*D53*X013173Y016904D03*
D28*Y015945D03*D48*Y014694D03*D42*X016573Y018363D03*Y018913D03*D23*
X016236Y018584D03*D46*X01248Y012697D03*D23*X012485Y013077D03*D24*
X026439Y009566D03*Y041063D03*X001242Y009566D03*D32*X00315Y01373D03*D48*
X008173Y014354D03*D32*X014173Y002706D03*X025197Y019241D03*D23*
X021893Y023058D03*D32*X008661Y002706D03*D48*X012173Y014022D03*D47*
X011585Y013597D03*D32*X019685Y002706D03*D47*X014083Y013195D03*D48*
X013173Y014013D03*D32*X00315Y024753D03*D47*X008281Y024275D03*D32*
X00315Y0468D03*D48*X0099Y040117D03*D32*X025197Y0468D03*D48*
X020079Y040104D03*D32*X025197Y024753D03*D47*X019287Y02548D03*
X016994Y014284D03*D32*X025197Y01373D03*X014173Y0468D03*D22*Y037402D03*
X022047Y009065D03*D54*X019173Y021945D03*D28*X010173D03*D47*
X00949Y035777D03*D28*X009173Y021945D03*D47*X00949Y030277D03*D28*
X008173Y020445D03*Y019445D03*Y018445D03*Y017445D03*X010173Y015945D03*
D48*X010423Y017104D03*D28*X018173Y021945D03*X014173Y015945D03*D30*
X013027Y008193D03*X009405Y010437D03*D47*X018313Y010433D03*D28*
X017173Y015945D03*X018173D03*X019173D03*X020173Y016445D03*
X017173Y021945D03*X020173Y017445D03*Y018445D03*Y020445D03*Y021445D03*
X014173Y021945D03*D47*X018606Y02548D03*D28*X013173Y021945D03*D47*
X019606Y035777D03*D28*X012173Y021945D03*D48*X020079Y039423D03*D28*
X011173Y021945D03*D48*X0099Y039436D03*D47*X016313Y014284D03*D28*
X015173Y015945D03*D47*X008809Y035777D03*D32*X00315D03*D47*
X008962Y024275D03*D28*X008173Y021945D03*D48*Y015035D03*D28*Y015945D03*
D48*X010423Y017785D03*Y018604D03*D32*X00315Y019241D03*D23*
X006846Y023457D03*D48*X01115Y014867D03*D28*X011173Y015945D03*D48*
X01115Y014186D03*D46*X01185Y012697D03*D48*X009173Y014354D03*Y013785D03*
D32*X00315Y002706D03*D48*X009173Y015035D03*D28*Y015945D03*D47*
X009456Y028464D03*D23*X009796Y024664D03*D48*X020447Y01457D03*D28*
X015173Y021945D03*D48*X022133Y011264D03*D23*Y010785D03*D47*
X019465Y019957D03*D23*X019476Y021344D03*D47*X004237Y009118D03*D30*
X007594Y010437D03*D47*X003556Y009118D03*Y010299D03*D28*
X016173Y015945D03*D47*X018994Y009646D03*Y008858D03*D42*
X017073Y018363D03*Y018913D03*D50*X017139Y019572D03*D28*
X020173Y019445D03*D47*X018784Y019957D03*X004237Y010299D03*D30*
X011216Y010437D03*D47*X018313Y008858D03*D30*X011216Y008193D03*D47*
X018313Y009646D03*D57*X014838Y008193D03*D47*X018994Y010433D03*D23*
X018973Y010945D03*D48*X010423Y019285D03*D23*X011053Y019505D03*D47*
X010904Y013597D03*D23*X010885Y013157D03*D48*X009173Y013104D03*D23*
X008663Y013115D03*D47*X014764Y013195D03*D23*X015183D03*D47*
X020287Y035777D03*D32*X025197D03*D30*X009405Y008193D03*X007594D03*
X014838Y010437D03*X013027D03*D45*X020531Y030909D03*X021909D03*D32*
X025197Y030265D03*X00315D03*D47*X008809Y030277D03*X008775Y028464D03*
D45*X024504Y007542D03*X025882D03*D32*X025197Y002706D03*D48*
X022133Y011945D03*X020447Y013889D03*D41*X025941Y007877D03*D23*
X025173Y007865D03*D41*X024445Y007877D03*D50*X017139Y019946D03*D23*
X017836Y019784D03*D39*Y020094D03*D23*X023156Y021984D03*D41*
X020472Y030574D03*X021968D03*D23*X020516Y029584D03*D45*
X020531Y03024D03*X021909D03*D23*X021476Y022304D03*D45*
X024504Y008211D03*X025882D03*D18*X019012Y023331D03*Y023843D03*X0185D03*
Y023331D03*D23*X019233Y012425D03*Y012925D03*D59*X018483Y012675D03*D23*
X017733Y012925D03*Y012425D03*D18*X01638Y02277D03*X016086Y023057D03*
X01587Y02277D03*D52*X016091Y023572D03*D18*X01542Y02394D03*
X01527Y02352D03*X01473D03*D26*X016173Y021945D03*D18*X018701Y024213D03*
X01827Y02382D03*X01824Y02337D03*D52*X017768Y023572D03*D39*
X017836Y020594D03*D50*X017139Y02032D03*X016233Y019946D03*D18*
X019291Y023425D03*Y023819D03*D23*X018756Y023587D03*D13*
X015173Y020139D02*G01X015631D01*X015812Y02032D01*X016233D01*
X015173Y019352D02*X015643D01*X015864Y019572D01*X016233D01*D19*
X012173Y016904D02*Y015945D01*Y014704D01*D20*Y017585D02*X013173D01*D19*
X012693D01*D20*Y017905D01*D19*X013173Y016904D02*Y015945D01*Y014694D01*
D14*X016573Y018363D02*Y018913D01*D19*Y018584D01*D14*X016236D01*D19*
X01248Y012697D02*X012485Y013077D01*X00315Y01373D02*X007857D01*
X008173Y014045D01*Y014354D01*X025197Y019241D02*X021893Y022545D01*
Y023058D01*X008661Y002706D02*X010251Y006917D01*X010245Y008657D01*
X008479Y009551D01*X008485Y011097D01*X010485D01*Y009977D01*
X010845Y009577D01*X012023D01*Y011766D01*X012165Y011997D01*Y012257D01*
X012173Y014022D01*Y013027D01*Y013597D01*X011585D01*X019685Y002706D02*
X01885Y008071D01*X018654Y008268D01*Y010827D01*X018457Y011024D01*
X018133Y011025D01*X015533Y013665D01*X015453D01*X015373Y013745D01*
Y014065D01*X014973Y014505D01*X014933Y015265D01*X014693Y015505D01*
Y016465D01*X013733D01*Y015625D01*X014053Y015305D01*X014083Y013195D01*
X013548D01*X013173Y01357D01*Y014013D01*X00315Y024753D02*
X006062Y024275D01*X008281D01*X00315Y0468D02*X009026Y040117D01*X0099D01*
X025197Y0468D02*X020079Y040809D01*Y040104D01*X025197Y024753D02*
X022384Y02548D01*X019287D01*X019659Y01423D02*X016994Y014284D01*
X021394Y01423D02*X019659D01*X025197Y01373D02*X021394Y01423D01*
X010173Y021945D02*Y022664D01*X010406Y022897D01*Y024777D01*
X009966Y025217D01*Y030537D01*X00949Y031013D01*Y035777D01*
X009173Y021945D02*Y023305D01*X009373Y023505D01*Y024665D01*
X009116Y024904D01*Y029144D01*X009293Y029305D01*X00949Y029502D01*
Y030277D01*X010173Y015945D02*X010423Y016594D01*Y017104D01*
X014173Y015945D02*X014373Y015425D01*Y014705D01*X015093Y013985D01*
Y013745D01*X015573Y013265D01*Y011481D01*X016621Y010433D01*
X015693Y009505D01*X013133D01*X012424Y008795D01*X013027Y008193D01*
X012424Y008795D02*X012034Y009185D01*X010656D01*X009405Y010437D01*
X016621Y010433D02*X018313D01*X014173Y021945D02*X013566Y022417D01*
X013046D01*Y022697D01*X014726Y024417D01*X018126D01*X018606Y024897D01*
Y02548D01*X013173Y021945D02*X012686Y022377D01*Y022657D01*
X014566Y024577D01*X017926D01*X018286Y024937D01*Y025937D01*
X019606Y027257D01*Y035777D01*X012173Y021945D02*Y022504D01*
X014446Y024777D01*X017846D01*X018126Y025057D01*Y026057D01*
X019246Y027177D01*Y036137D01*X020079Y036969D01*Y039423D01*
X011173Y021945D02*Y02429D01*X010166Y025297D01*Y030697D01*
X0099Y030964D01*Y039436D01*X016313Y014284D02*X015767D01*
X015275Y014776D01*Y015465D01*X015173Y015945D01*X008809Y035777D02*
X00315D01*X008962Y024275D02*Y023813D01*X008693Y023545D01*
X008173Y023025D01*Y021945D01*Y015035D02*Y015945D01*X010423Y017785D02*
Y018604D01*X009264D01*X008923Y018945D01*X006673D01*X00315Y019241D01*
X006853Y022945D01*X006846Y023457D01*X01115Y014867D02*Y015921D01*
X011173Y015945D01*X01115Y014186D02*X010565Y014197D01*X010445Y014037D01*
Y012877D01*X010665Y012697D01*X01185D01*X009173Y014354D02*Y013785D01*
X008517D01*X005636Y010904D01*X003516D01*X003076Y010464D01*Y00278D01*
X00315Y002706D01*X009173Y015035D02*Y015945D01*X009456Y028464D02*
X009476Y025024D01*X009796Y024664D01*X020447Y01457D02*Y015018D01*
X020926Y015497D01*Y024937D01*X018926D01*X018246Y024217D01*X014926D01*
X013446Y022737D01*Y022617D01*X014126D01*X015173Y021945D01*
X022133Y011264D02*Y010785D01*X019465Y019957D02*Y021333D01*
X019476Y021344D01*X004237Y009118D02*X006274D01*X007594Y010437D01*
X003556Y009118D02*Y010299D01*Y010648D01*X003613Y010705D01*X005733D01*
X006973Y011945D01*X009533D01*X010013Y012425D01*Y014785D01*
X010693Y015465D01*Y016225D01*X011293Y016825D01*Y017945D01*
X011653Y018305D01*X014693D01*X016173Y016825D01*D15*Y015945D01*D19*
X016653Y015465D01*Y012865D01*X018053Y011465D01*X018933D01*
X019493Y010905D01*Y009785D01*X019354Y009646D01*X018994D01*Y008858D01*
D15*X016173Y016825D02*Y016845D01*X016805Y017477D01*X017073Y017745D01*
Y018363D01*D13*Y018913D01*Y019221D01*X017139Y019287D01*Y019572D01*D15*
X017546D01*X017673Y019445D01*X020173D01*D19*X018773D01*
X018765Y019437D01*Y019937D01*X018784Y019957D01*X004237Y010299D02*
X005727D01*X006725Y011297D01*X010685D01*Y010968D01*X011216Y010437D01*
X018313Y008858D02*X017127D01*X015653Y007385D01*X012023D01*
X011216Y008193D01*X018313Y009646D02*X016291D01*X014838Y008193D01*
X018994Y010433D02*Y010924D01*X018973Y010945D01*D11*X010423Y019285D02*
X011053D01*Y019505D01*D19*X010904Y013597D02*X010885Y013157D01*
X009173Y013104D02*X008663Y013115D01*X014764Y013195D02*X015183D01*
X020287Y035777D02*X025197D01*X020531Y030909D02*X021909D01*X024553D01*
X025197Y030265D01*X027493Y032561D01*Y048378D01*X026773Y049098D01*
X001573D01*X000853Y048378D01*Y032561D01*X00315Y030265D01*
X003161Y030277D01*X008809D01*Y028531D01*X008775Y028464D01*
X024504Y007542D02*X025882D01*Y007173D01*X024Y005292D01*
X025197Y002706D01*X024Y005292D02*X02415Y00546D01*X02414Y01084D01*
X02268Y01194D01*X02092Y011945D01*X022133D01*X02092D02*
X020447Y012968D01*Y013889D01*X025941Y007877D02*X025185D01*
X025173Y007865D01*X025161Y007877D01*X024445D01*D14*X017139Y019946D02*
X017556Y019944D01*X017836Y019784D01*Y020094D01*D19*X023156Y021984D02*
X027116D01*X027516Y022384D01*Y026864D01*X026956Y027424D01*X023796D01*
X022476Y028744D01*Y030504D01*X022406Y030574D01*X020472D01*X021968D01*
X020516Y029584D02*Y030225D01*X020531Y03024D01*X021909D01*
X021476Y022304D02*Y017544D01*X022596Y016424D01*X026356D01*
X027556Y015224D01*Y009104D01*X026663Y008211D01*X024504D01*X025882D01*
X019233Y012425D02*Y012925D01*X018983Y012675D01*X018483D01*
X018233Y012925D01*X017733D01*Y012425D01*D11*X01638Y02277D02*
X016086Y023057D01*X01587Y02277D01*D19*X016086Y023057D02*
X016076Y023587D01*X016091Y023572D01*X016173D01*D20*Y023532D01*D11*
X0156Y02358D01*X01542Y02394D01*X01527Y02352D01*X01473D01*D12*
X016173Y023532D02*Y021945D01*D11*X018701Y024213D02*X01827Y02382D01*
X01824Y02337D01*X01827Y02361D01*X017768Y023572D01*D19*
X017673Y023478D01*D15*X017766Y023337D01*X017773Y022995D01*
X017673Y022445D01*Y021195D01*X017836Y021032D01*D14*Y020594D01*D13*
X017606D01*X017556Y020544D01*Y020384D01*X017492Y02032D01*X017139D01*
X016852D01*X016478Y019946D01*X016233D01*D17*X017768Y023572D02*
X018756Y023587D01*D11*X019291Y023425D01*Y023819D01*D17*
X018756Y023587D02*X018741Y023572D01*D25*X018756Y023587D01*D19*
Y023331D02*X019012D01*Y023843D01*X0185D01*Y023331D01*X018756D01*D21*
X018483Y012425D02*X019233D01*Y012925D01*X017733D01*Y012425D01*
X018483D01*D18*X015846Y023017D02*X01602Y02307D01*X016126Y023097D01*
%LPD*%
D49*X015173Y020139D03*D43*X016233Y02032D03*D49*X015173Y019352D03*D43*
X016233Y019572D03*D40*X012173Y016904D03*D27*Y015945D03*D40*Y014704D03*
Y017585D03*X013173D03*D19*X012693Y017905D03*D40*X013173Y016904D03*D27*
Y015945D03*D40*Y014694D03*D34*X016573Y018363D03*Y018913D03*D19*
X016236Y018584D03*D37*X01248Y012697D03*D19*X012485Y013077D03*D23*
X026439Y009566D03*Y041063D03*X001242Y009566D03*D31*X00315Y01373D03*D40*
X008173Y014354D03*D31*X014173Y002706D03*X025197Y019241D03*D19*
X021893Y023058D03*D31*X008661Y002706D03*D40*X012173Y014022D03*D38*
X011585Y013597D03*D31*X019685Y002706D03*D38*X014083Y013195D03*D40*
X013173Y014013D03*D31*X00315Y024753D03*D38*X008281Y024275D03*D31*
X00315Y0468D03*D40*X0099Y040117D03*D31*X025197Y0468D03*D40*
X020079Y040104D03*D31*X025197Y024753D03*D38*X019287Y02548D03*
X016994Y014284D03*D31*X025197Y01373D03*X014173Y0468D03*D16*Y037402D03*
X022047Y009065D03*D51*X019173Y021945D03*D27*X010173D03*D38*
X00949Y035777D03*D27*X009173Y021945D03*D38*X00949Y030277D03*D27*
X008173Y020445D03*Y019445D03*Y018445D03*Y017445D03*X010173Y015945D03*
D40*X010423Y017104D03*D27*X018173Y021945D03*X014173Y015945D03*D29*
X013027Y008193D03*X009405Y010437D03*D38*X018313Y010433D03*D27*
X017173Y015945D03*X018173D03*X019173D03*X020173Y016445D03*
X017173Y021945D03*X020173Y017445D03*Y018445D03*Y020445D03*Y021445D03*
X014173Y021945D03*D38*X018606Y02548D03*D27*X013173Y021945D03*D38*
X019606Y035777D03*D27*X012173Y021945D03*D40*X020079Y039423D03*D27*
X011173Y021945D03*D40*X0099Y039436D03*D38*X016313Y014284D03*D27*
X015173Y015945D03*D38*X008809Y035777D03*D31*X00315D03*D38*
X008962Y024275D03*D27*X008173Y021945D03*D40*Y015035D03*D27*Y015945D03*
D40*X010423Y017785D03*Y018604D03*D31*X00315Y019241D03*D19*
X006846Y023457D03*D40*X01115Y014867D03*D27*X011173Y015945D03*D40*
X01115Y014186D03*D37*X01185Y012697D03*D40*X009173Y014354D03*Y013785D03*
D31*X00315Y002706D03*D40*X009173Y015035D03*D27*Y015945D03*D38*
X009456Y028464D03*D19*X009796Y024664D03*D40*X020447Y01457D03*D27*
X015173Y021945D03*D40*X022133Y011264D03*D19*Y010785D03*D38*
X019465Y019957D03*D19*X019476Y021344D03*D38*X004237Y009118D03*D29*
X007594Y010437D03*D38*X003556Y009118D03*Y010299D03*D27*
X016173Y015945D03*D38*X018994Y009646D03*Y008858D03*D34*
X017073Y018363D03*Y018913D03*D43*X017139Y019572D03*D27*
X020173Y019445D03*D38*X018784Y019957D03*X004237Y010299D03*D29*
X011216Y010437D03*D38*X018313Y008858D03*D29*X011216Y008193D03*D38*
X018313Y009646D03*D56*X014838Y008193D03*D38*X018994Y010433D03*D19*
X018973Y010945D03*D40*X010423Y019285D03*D19*X011053Y019505D03*D38*
X010904Y013597D03*D19*X010885Y013157D03*D40*X009173Y013104D03*D19*
X008663Y013115D03*D38*X014764Y013195D03*D19*X015183D03*D38*
X020287Y035777D03*D31*X025197D03*D29*X009405Y008193D03*X007594D03*
X014838Y010437D03*X013027D03*D36*X020531Y030909D03*X021909D03*D31*
X025197Y030265D03*X00315D03*D38*X008809Y030277D03*X008775Y028464D03*
D36*X024504Y007542D03*X025882D03*D31*X025197Y002706D03*D40*
X022133Y011945D03*X020447Y013889D03*D35*X025941Y007877D03*D19*
X025173Y007865D03*D35*X024445Y007877D03*D43*X017139Y019946D03*D19*
X017836Y019784D03*D33*Y020094D03*D19*X023156Y021984D03*D35*
X020472Y030574D03*X021968D03*D19*X020516Y029584D03*D36*
X020531Y03024D03*X021909D03*D19*X021476Y022304D03*D36*
X024504Y008211D03*X025882D03*D19*X019012Y023331D03*Y023843D03*X0185D03*
Y023331D03*X019233Y012425D03*Y012925D03*D58*X018483Y012675D03*D19*
X017733Y012925D03*Y012425D03*X01638Y02277D03*X016086Y023057D03*
X01587Y02277D03*D44*X016091Y023572D03*D17*X01635Y023903D02*
X016407Y023959D01*X016091Y023903D02*Y023983D01*X015831Y023903D02*
X015774Y023959D01*X015831Y023572D02*X015751D01*X015831Y023241D02*
X015774Y023185D01*X016091Y023241D02*Y023161D01*X01635Y023241D02*
X016407Y023185D01*X01635Y023572D02*X01643D01*D19*X01542Y02394D03*
X01527Y02352D03*X01473D03*D27*X016173Y021945D03*D19*X018701Y024213D03*
X01827Y02382D03*X01824Y02337D03*D44*X017768Y023572D03*D17*
X018028Y023903D02*X018084Y023959D01*X017768Y023903D02*Y023983D01*
X017508Y023903D02*X017451Y023959D01*X017508Y023572D02*X017428D01*
X017508Y023241D02*X017451Y023185D01*X017768Y023241D02*Y023161D01*
X018028Y023241D02*X018084Y023185D01*X018028Y023572D02*X018108D01*D33*
X017836Y020594D03*D43*X017139Y02032D03*X016233Y019946D03*D19*
X019291Y023425D03*Y023819D03*X018756Y023587D03*D13*X015173Y020139D02*
X015631D01*X015812Y02032D01*X016233D01*X015173Y019352D02*X015643D01*
X015864Y019572D01*X016233D01*D11*X012173Y016904D02*Y015945D01*
Y014704D01*D20*Y017585D02*X013173D01*D11*X012693D01*D20*Y017905D01*D11*
X013173Y016904D02*Y015945D01*Y014694D01*D14*X016573Y018363D02*
Y018913D01*D11*Y018584D01*D14*X016236D01*D11*X01248Y012697D02*
X012485Y013077D01*X00315Y01373D02*X007857D01*X008173Y014045D01*
Y014354D01*X025197Y019241D02*X021893Y022545D01*Y023058D01*
X008661Y002706D02*X010251Y006917D01*X010245Y008657D01*
X008479Y009551D01*X008485Y011097D01*X010485D01*Y009977D01*
X010845Y009577D01*X012023D01*Y011766D01*X012165Y011997D01*Y012257D01*
X012173Y014022D01*Y013027D01*Y013597D01*X011585D01*X019685Y002706D02*
X01885Y008071D01*X018654Y008268D01*Y010827D01*X018457Y011024D01*
X018133Y011025D01*X015533Y013665D01*X015453D01*X015373Y013745D01*
Y014065D01*X014973Y014505D01*X014933Y015265D01*X014693Y015505D01*
Y016465D01*X013733D01*Y015625D01*X014053Y015305D01*X014083Y013195D01*
X013548D01*X013173Y01357D01*Y014013D01*X00315Y024753D02*
X006062Y024275D01*X008281D01*X00315Y0468D02*X009026Y040117D01*X0099D01*
X025197Y0468D02*X020079Y040809D01*Y040104D01*X025197Y024753D02*
X022384Y02548D01*X019287D01*X019659Y01423D02*X016994Y014284D01*
X021394Y01423D02*X019659D01*X025197Y01373D02*X021394Y01423D01*
X010173Y021945D02*Y022664D01*X010406Y022897D01*Y024777D01*
X009966Y025217D01*Y030537D01*X00949Y031013D01*Y035777D01*
X009173Y021945D02*Y023305D01*X009373Y023505D01*Y024665D01*
X009116Y024904D01*Y029144D01*X009293Y029305D01*X00949Y029502D01*
Y030277D01*X010173Y015945D02*X010423Y016594D01*Y017104D01*
X014173Y015945D02*X014373Y015425D01*Y014705D01*X015093Y013985D01*
Y013745D01*X015573Y013265D01*Y011481D01*X016621Y010433D01*
X015693Y009505D01*X013133D01*X012424Y008795D01*X013027Y008193D01*
X012424Y008795D02*X012034Y009185D01*X010656D01*X009405Y010437D01*
X016621Y010433D02*X018313D01*X014173Y021945D02*X013566Y022417D01*
X013046D01*Y022697D01*X014726Y024417D01*X018126D01*X018606Y024897D01*
Y02548D01*X013173Y021945D02*X012686Y022377D01*Y022657D01*
X014566Y024577D01*X017926D01*X018286Y024937D01*Y025937D01*
X019606Y027257D01*Y035777D01*X012173Y021945D02*Y022504D01*
X014446Y024777D01*X017846D01*X018126Y025057D01*Y026057D01*
X019246Y027177D01*Y036137D01*X020079Y036969D01*Y039423D01*
X011173Y021945D02*Y02429D01*X010166Y025297D01*Y030697D01*
X0099Y030964D01*Y039436D01*X016313Y014284D02*X015767D01*
X015275Y014776D01*Y015465D01*X015173Y015945D01*X008809Y035777D02*
X00315D01*X008962Y024275D02*Y023813D01*X008693Y023545D01*
X008173Y023025D01*Y021945D01*Y015035D02*Y015945D01*X010423Y017785D02*
Y018604D01*X009264D01*X008923Y018945D01*X006673D01*X00315Y019241D01*
X006853Y022945D01*X006846Y023457D01*X01115Y014867D02*Y015921D01*
X011173Y015945D01*X01115Y014186D02*X010565Y014197D01*X010445Y014037D01*
Y012877D01*X010665Y012697D01*X01185D01*X009173Y014354D02*Y013785D01*
X008517D01*X005636Y010904D01*X003516D01*X003076Y010464D01*Y00278D01*
X00315Y002706D01*X009173Y015035D02*Y015945D01*X009456Y028464D02*
X009476Y025024D01*X009796Y024664D01*X020447Y01457D02*Y015018D01*
X020926Y015497D01*Y024937D01*X018926D01*X018246Y024217D01*X014926D01*
X013446Y022737D01*Y022617D01*X014126D01*X015173Y021945D01*
X022133Y011264D02*Y010785D01*X019465Y019957D02*Y021333D01*
X019476Y021344D01*X004237Y009118D02*X006274D01*X007594Y010437D01*
X003556Y009118D02*Y010299D01*Y010648D01*X003613Y010705D01*X005733D01*
X006973Y011945D01*X009533D01*X010013Y012425D01*Y014785D01*
X010693Y015465D01*Y016225D01*X011293Y016825D01*Y017945D01*
X011653Y018305D01*X014693D01*X016173Y016825D01*D15*Y015945D01*D11*
X016653Y015465D01*Y012865D01*X018053Y011465D01*X018933D01*
X019493Y010905D01*Y009785D01*X019354Y009646D01*X018994D01*Y008858D01*
D15*X016173Y016825D02*Y016845D01*X016805Y017477D01*X017073Y017745D01*
Y018363D01*D13*Y018913D01*Y019221D01*X017139Y019287D01*Y019572D01*D15*
X017546D01*X017673Y019445D01*X020173D01*D11*X018773D01*
X018765Y019437D01*Y019937D01*X018784Y019957D01*X004237Y010299D02*
X005727D01*X006725Y011297D01*X010685D01*Y010968D01*X011216Y010437D01*
X018313Y008858D02*X017127D01*X015653Y007385D01*X012023D01*
X011216Y008193D01*X018313Y009646D02*X016291D01*X014838Y008193D01*
X018994Y010433D02*Y010924D01*X018973Y010945D01*X010423Y019285D02*
X011053D01*Y019505D01*X010904Y013597D02*X010885Y013157D01*
X009173Y013104D02*X008663Y013115D01*X014764Y013195D02*X015183D01*
X020287Y035777D02*X025197D01*X020531Y030909D02*X021909D01*X024553D01*
X025197Y030265D01*X027493Y032561D01*Y048378D01*X026773Y049098D01*
X001573D01*X000853Y048378D01*Y032561D01*X00315Y030265D01*
X003161Y030277D01*X008809D01*Y028531D01*X008775Y028464D01*
X024504Y007542D02*X025882D01*Y007173D01*X024Y005292D01*
X025197Y002706D01*X024Y005292D02*X02415Y00546D01*X02414Y01084D01*
X02268Y01194D01*X02092Y011945D01*X022133D01*X02092D02*
X020447Y012968D01*Y013889D01*X025941Y007877D02*X025185D01*
X025173Y007865D01*X025161Y007877D01*X024445D01*D14*X017139Y019946D02*
X017556Y019944D01*X017836Y019784D01*Y020094D01*D11*X023156Y021984D02*
X027116D01*X027516Y022384D01*Y026864D01*X026956Y027424D01*X023796D01*
X022476Y028744D01*Y030504D01*X022406Y030574D01*X020472D01*X021968D01*
X020516Y029584D02*Y030225D01*X020531Y03024D01*X021909D01*
X021476Y022304D02*Y017544D01*X022596Y016424D01*X026356D01*
X027556Y015224D01*Y009104D01*X026663Y008211D01*X024504D01*X025882D01*
X019233Y012425D02*Y012925D01*X018983Y012675D01*X018483D01*
X018233Y012925D01*X017733D01*Y012425D01*X01638Y02277D02*
X016086Y023057D01*X01587Y02277D01*X016086Y023057D02*X016076Y023587D01*
X016091Y023572D01*X016173D01*D20*Y023532D01*D11*X0156Y02358D01*
X01542Y02394D01*X01527Y02352D01*X01473D01*D12*X016173Y023532D02*
Y021945D01*D11*X018701Y024213D02*X01827Y02382D01*X01824Y02337D01*
X01827Y02361D01*X017768Y023572D01*X017673Y023478D01*D15*
X017766Y023337D01*X017773Y022995D01*X017673Y022445D01*Y021195D01*
X017836Y021032D01*D14*Y020594D01*D13*X017606D01*X017556Y020544D01*
Y020384D01*X017492Y02032D01*X017139D01*X016852D01*X016478Y019946D01*
X016233D01*D17*X017768Y023572D02*X018756Y023587D01*D11*
X019291Y023425D01*Y023819D01*D17*X018756Y023587D02*X018741Y023572D01*
D25*X018756Y023587D01*D19*Y023331D02*X019012D01*Y023843D01*X0185D01*
Y023331D01*X018756D01*D21*X018483Y012425D02*X019233D01*Y012925D01*
X017733D01*Y012425D01*X018483D01*D18*X015846Y023017D02*X01602Y02307D01*
X016126Y023097D01*
M02*