M48
FMAT,2
INCH,LZ
T1C0.1180
T2C0.0120
T3C0.0390
T4C0.0640
T5C0.1260
%
T1
X014173Y037402
X022047Y009065
T2
X021893Y023058
X017836Y019784
X016236Y018584
X009796Y024664
X016086Y023057
X019012Y023331
X019012Y023843
X0185Y023843
X0185Y023331
X017733Y012925
X017733Y012425
X006846Y023457
X019233Y012425
X019233Y012925
X018973Y010945
X022133Y010785
X025173Y007865
X023156Y021984
X019476Y021344
X020516Y029584
X021476Y022304
X01473Y02352
X018756Y023587
X01542Y02394
X01638Y02277
X01527Y02352
X01587Y02277
X01827Y02382
X01824Y02337
X019291Y023819
X019291Y023425
X018701Y024213
X012485Y013077
X015183Y013195
X010885Y013157
X008663Y013115
X012693Y017905
X011053Y019505
T3
X019173Y021945
X010173Y021945
X009173Y021945
X008173Y021945
X008173Y020445
X008173Y019445
X008173Y018445
X008173Y017445
X008173Y015945
X009173Y015945
X010173Y015945
X018173Y021945
X011173Y015945
X012173Y015945
X013173Y015945
X014173Y015945
X015173Y015945
X016173Y015945
X017173Y015945
X018173Y015945
X019173Y015945
X020173Y016445
X017173Y021945
X020173Y017445
X020173Y018445
X020173Y019445
X020173Y020445
X020173Y021445
X016173Y021945
X015173Y021945
X014173Y021945
X013173Y021945
X012173Y021945
X011173Y021945
T4
X014838Y008193
X007594Y010437
X013027Y008193
X011216Y008193
X009405Y008193
X007594Y008193
X014838Y010437
X013027Y010437
X011216Y010437
X009405Y010437
T5
X00315Y01373
X025197Y030265
X00315Y002706
X00315Y019241
X00315Y030265
X014173Y002706
X025197Y019241
X025197Y002706
X008661Y002706
X019685Y002706
X00315Y024753
X00315Y035777
X00315Y0468
X025197Y0468
X025197Y035777
X025197Y024753
X025197Y01373
X014173Y0468
M30
